<svg width="80.000000" height="80.000000" viewBox="0 0 80 80" fill="none" xmlns="http://www.w3.org/2000/svg" xmlns:xlink="http://www.w3.org/1999/xlink">
	<desc>
			Created with Pixso.
	</desc>
	<defs/>
	<circle id="Ellipse 13" cx="40.000000" cy="40.000000" r="40.000000" fill="#444B58" fill-opacity="1.000000"/>
	<path id="Vector" d="M54 36.28L49.24 36.28L44.25 27.45C44 27.01 43.46 26.86 43.04 27.13C42.63 27.39 42.5 27.96 42.74 28.4L47.2 36.28L32.79 36.28L37.25 28.4C37.49 27.96 37.36 27.39 36.95 27.13C36.53 26.86 35.99 27.01 35.74 27.45L30.75 36.28L26 36.28L26 38.14L27.89 38.14L30.12 50.72C30.35 52.04 31.43 53 32.7 53L47.29 53C48.56 53 49.64 52.04 49.87 50.72L52.1 38.14L54 38.14L54 36.28ZM48.15 50.38C48.08 50.82 47.71 51.14 47.29 51.14L32.7 51.14C32.28 51.14 31.91 50.82 31.84 50.38L29.67 38.14L50.32 38.14L48.15 50.38Z" fill="#FFFFFF" fill-opacity="1.000000" fill-rule="nonzero"/>
</svg>
