<svg width="80.000000" height="80.000000" viewBox="0 0 80 80" fill="none" xmlns="http://www.w3.org/2000/svg" xmlns:xlink="http://www.w3.org/1999/xlink">
	<desc>
			Created with Pixso.
	</desc>
	<defs/>
	<circle id="Ellipse 12" cx="40.000000" cy="40.000000" r="40.000000" fill="#444B58" fill-opacity="1.000000"/>
	<rect id="Iconly/Light/Show" rx="-0.500000" width="29.000000" height="29.000000" transform="translate(25.500000 25.500000)" fill="#FFFFFF" fill-opacity="0"/>
	<path id="Stroke 1" d="M39.99 44.01C37.81 44.01 36.04 42.24 36.04 40.06C36.04 37.88 37.81 36.11 39.99 36.11C42.18 36.11 43.95 37.88 43.95 40.06C43.95 42.24 42.18 44.01 39.99 44.01Z" stroke="#FFFFFF" stroke-opacity="1.000000" stroke-width="1.500000" stroke-linejoin="round"/>
	<path id="Stroke 3" d="M51.56 40.06C49.11 34.36 44.75 30.93 39.99 30.93L40 30.93C35.24 30.93 30.88 34.36 28.43 40.06C30.88 45.77 35.24 49.19 40 49.19L39.99 49.19C44.75 49.19 49.11 45.77 51.56 40.06Z" stroke="#FFFFFF" stroke-opacity="1.000000" stroke-width="1.500000" stroke-linejoin="round"/>
</svg>
