<svg width="210.119629" height="419.000000" viewBox="0 0 210.12 419" fill="none" xmlns="http://www.w3.org/2000/svg" xmlns:xlink="http://www.w3.org/1999/xlink">
	<desc>
			Created with Pixso.
	</desc>
	<defs>
		<filter id="filter_26_65_dd" x="0.000000" y="0.000000" width="210.119629" height="419.000000" filterUnits="userSpaceOnUse" color-interpolation-filters="sRGB">
			<feFlood flood-opacity="0" result="BackgroundImageFix"/>
			<feColorMatrix in="SourceAlpha" type="matrix" values="0 0 0 0 0 0 0 0 0 0 0 0 0 0 0 0 0 0 127 0" result="hardAlpha"/>
			<feOffset dx="0" dy="0"/>
			<feGaussianBlur stdDeviation="0.666667"/>
			<feComposite in2="hardAlpha" operator="out" k2="-1" k3="1"/>
			<feColorMatrix type="matrix" values="0 0 0 0 0 0 0 0 0 0.082353 0 0 0 0 0.25098 0 0 0 0.14 0"/>
			<feBlend mode="normal" in2="BackgroundImageFix" result="effect_dropShadow_1"/>
			<feColorMatrix in="SourceAlpha" type="matrix" values="0 0 0 0 0 0 0 0 0 0 0 0 0 0 0 0 0 0 127 0" result="hardAlpha"/>
			<feOffset dx="0" dy="2"/>
			<feGaussianBlur stdDeviation="1.33333"/>
			<feComposite in2="hardAlpha" operator="out" k2="-1" k3="1"/>
			<feColorMatrix type="matrix" values="0 0 0 0 0 0 0 0 0 0.082353 0 0 0 0 0.25098 0 0 0 0.051 0"/>
			<feBlend mode="normal" in2="effect_dropShadow_1" result="effect_dropShadow_2"/>
			<feBlend mode="normal" in="SourceGraphic" in2="effect_dropShadow_2" result="shape"/>
		</filter>
	</defs>
	<path id="Power" d="M206.11 96.36L206.59 96.36C207.12 96.36 207.56 96.79 207.56 97.32L207.56 143.31C207.56 143.84 207.12 144.26 206.59 144.26L206.11 144.26L206.11 96.36Z" fill="#121515" fill-opacity="1.000000" fill-rule="evenodd"/>
	<path id="Volume Down" d="M2.55 125.1C2.55 124.57 2.98 124.15 3.51 124.15L4 124.15L4 154.32L3.51 154.32C2.98 154.32 2.55 153.89 2.55 153.37L2.55 125.1Z" fill="#121515" fill-opacity="1.000000" fill-rule="evenodd"/>
	<path id="Volume Up" d="M2.55 87.26C2.55 86.73 2.98 86.3 3.51 86.3L4 86.3L4 116.48L3.51 116.48C2.98 116.48 2.55 116.05 2.55 115.52L2.55 87.26Z" fill="#121515" fill-opacity="1.000000" fill-rule="evenodd"/>
	<path id="Mute Switch" d="M2.55 58.04C2.55 57.51 2.98 57.08 3.51 57.08L4 57.08L4 72.89L3.51 72.89C2.98 72.89 2.55 72.46 2.55 71.93L2.55 58.04Z" fill="#121515" fill-opacity="1.000000" fill-rule="evenodd"/>
	<g filter="url(#filter_26_65_dd)">
		<path id="Device Surround" d="M4 32.17C4 15.51 17.54 2 34.24 2L175.87 2C192.57 2 206.12 15.51 206.12 32.17L206.12 382.82C206.12 399.48 192.57 413 175.87 413L34.24 413C17.54 413 4 399.48 4 382.82L4 32.17Z" fill="#3A4245" fill-opacity="1.000000" fill-rule="evenodd"/>
	</g>
	<path id="Device BG" d="M6.4 32.17C6.4 16.83 18.86 4.39 34.24 4.39L175.87 4.39C191.25 4.39 203.71 16.83 203.71 32.17L203.71 382.82C203.71 398.16 191.25 410.6 175.87 410.6L34.24 410.6C18.86 410.6 6.4 398.16 6.4 382.82L6.4 32.17Z" fill="#121515" fill-opacity="1.000000" fill-rule="evenodd"/>
	<rect id="Camera" rx="-0.500000" width="6.681496" height="6.664335" transform="translate(123.562988 13.996460)" fill="#FFFFFF" fill-opacity="0"/>
	<path id="Oval" d="M126.9 21.16C129.02 21.16 130.74 19.44 130.74 17.32C130.74 15.21 129.02 13.49 126.9 13.49C124.78 13.49 123.06 15.21 123.06 17.32C123.06 19.44 124.78 21.16 126.9 21.16Z" fill="#262C2D" fill-opacity="1.000000" fill-rule="evenodd"/>
	<path id="Oval" d="M126.9 19.72C128.22 19.72 129.3 18.65 129.3 17.32C129.3 16 128.22 14.93 126.9 14.93C125.57 14.93 124.5 16 124.5 17.32C124.5 18.65 125.57 19.72 126.9 19.72Z" fill="#121515" fill-opacity="1.000000" fill-rule="evenodd"/>
	<g opacity="0.400000" style="mix-blend-mode:normal">
		<path id="Oval" d="M126.9 16.84C127.16 16.84 127.38 16.63 127.38 16.37C127.38 16.1 127.16 15.89 126.9 15.89C126.63 15.89 126.42 16.1 126.42 16.37C126.42 16.63 126.63 16.84 126.9 16.84Z" fill="#636F73" fill-opacity="1.000000" fill-rule="evenodd"/>
	</g>
	<rect id="Speaker" rx="-0.500000" width="23.484772" height="1.874125" transform="translate(93.317383 16.391602)" fill="#FFFFFF" fill-opacity="0"/>
	<path id="Speaker" d="M94.25 15.89L115.86 15.89C116.65 15.89 117.3 16.53 117.3 17.32C117.3 18.12 116.65 18.76 115.86 18.76L94.25 18.76C93.46 18.76 92.81 18.12 92.81 17.32C92.81 16.53 93.46 15.89 94.25 15.89Z" fill="#262C2D" fill-opacity="1.000000" fill-rule="evenodd"/>
	<mask id="mask26_73" mask-type="alpha" maskUnits="userSpaceOnUse" x="15.041992" y="13.017456" width="180.035156" height="388.965027">
		<path id="Screen Shape" d="M65.93 27.38L144.18 27.38C150.55 27.38 155.7 22.24 155.7 15.29C155.77 14.06 156.75 13.08 157.98 13.02L176.83 13.01C186.9 13.01 195.07 21.16 195.07 31.22L195.07 383.78C195.07 393.83 186.9 401.98 176.83 401.98L33.28 401.98C23.21 401.98 15.04 393.83 15.04 383.78L15.04 31.22C15.04 21.16 23.21 13.01 33.28 13.01L52.12 13.01C53.35 13.08 54.34 14.06 54.4 15.28C54.4 22.24 59.56 27.38 65.93 27.38Z" fill="#FFFFFF" fill-opacity="1.000000" fill-rule="evenodd"/>
	</mask>
	<g mask="url(#mask26_73)">
		<path id="Screen [CHANGE ME]" d="M15.04 13.01L195.07 13.01L195.07 401.98L15.04 401.98L15.04 13.01Z" fill="#000000" fill-opacity="1.000000" fill-rule="evenodd"/>
	</g>
</svg>
