<svg width="116.000000" height="20.000000" viewBox="0 0 116 20" fill="none" xmlns="http://www.w3.org/2000/svg" xmlns:xlink="http://www.w3.org/1999/xlink">
	<desc>
			Created with Pixso.
	</desc>
	<defs/>
	<path id="Star 1" d="M9.04 2.92L7.97 6.21C7.84 6.63 7.46 6.9 7.02 6.9L3.56 6.9C2.59 6.9 2.19 8.14 2.97 8.71L5.77 10.75C6.12 11 6.27 11.45 6.14 11.87L5.07 15.16C4.77 16.08 5.82 16.85 6.61 16.28L9.41 14.24C9.76 13.99 10.23 13.99 10.58 14.24L13.38 16.28C14.17 16.85 15.22 16.08 14.92 15.16L13.85 11.87C13.72 11.45 13.87 11 14.22 10.75L17.02 8.71C17.8 8.14 17.4 6.9 16.43 6.9L12.97 6.9C12.53 6.9 12.15 6.63 12.02 6.21L10.95 2.92C10.65 2 9.34 2 9.04 2.92Z" fill="#F14F4F" fill-opacity="1.000000" fill-rule="evenodd"/>
	<path id="Star 2" d="M33.04 2.92L31.97 6.21C31.84 6.63 31.46 6.9 31.02 6.9L27.56 6.9C26.59 6.9 26.19 8.14 26.97 8.71L29.77 10.75C30.12 11 30.27 11.45 30.14 11.87L29.07 15.16C28.77 16.08 29.82 16.85 30.61 16.28L33.41 14.24C33.76 13.99 34.23 13.99 34.58 14.24L37.38 16.28C38.17 16.85 39.22 16.08 38.92 15.16L37.85 11.87C37.72 11.45 37.87 11 38.22 10.75L41.02 8.71C41.8 8.14 41.4 6.9 40.43 6.9L36.97 6.9C36.53 6.9 36.15 6.63 36.02 6.21L34.95 2.92C34.65 2 33.34 2 33.04 2.92Z" fill="#F14F4F" fill-opacity="1.000000" fill-rule="evenodd"/>
	<path id="Star 4" d="M81.04 2.92L79.97 6.21C79.84 6.63 79.46 6.9 79.02 6.9L75.56 6.9C74.59 6.9 74.19 8.14 74.97 8.71L77.77 10.75C78.12 11 78.27 11.45 78.14 11.87L77.07 15.16C76.77 16.08 77.82 16.85 78.61 16.28L81.41 14.24C81.76 13.99 82.23 13.99 82.58 14.24L85.38 16.28C86.17 16.85 87.22 16.08 86.92 15.16L85.85 11.87C85.72 11.45 85.87 11 86.22 10.75L89.02 8.71C89.8 8.14 89.4 6.9 88.43 6.9L84.97 6.9C84.53 6.9 84.15 6.63 84.02 6.21L82.95 2.92C82.65 2 81.34 2 81.04 2.92Z" fill="#F14F4F" fill-opacity="1.000000" fill-rule="evenodd"/>
	<path id="Star 3" d="M57.04 2.92L55.97 6.21C55.84 6.63 55.46 6.9 55.02 6.9L51.56 6.9C50.59 6.9 50.19 8.14 50.97 8.71L53.77 10.75C54.12 11 54.27 11.45 54.14 11.87L53.07 15.16C52.77 16.08 53.82 16.85 54.61 16.28L57.41 14.24C57.76 13.99 58.23 13.99 58.58 14.24L61.38 16.28C62.17 16.85 63.22 16.08 62.92 15.16L61.85 11.87C61.72 11.45 61.87 11 62.22 10.75L65.02 8.71C65.8 8.14 65.4 6.9 64.43 6.9L60.97 6.9C60.53 6.9 60.15 6.63 60.02 6.21L58.95 2.92C58.65 2 57.34 2 57.04 2.92Z" fill="#F14F4F" fill-opacity="1.000000" fill-rule="evenodd"/>
	<path id="Star 5" d="M105.04 2.92L103.97 6.21C103.84 6.63 103.46 6.9 103.02 6.9L99.56 6.9C98.59 6.9 98.19 8.14 98.97 8.71L101.77 10.75C102.13 11 102.27 11.45 102.14 11.87L101.07 15.16C100.77 16.08 101.82 16.85 102.61 16.28L105.41 14.24C105.76 13.99 106.23 13.99 106.58 14.24L109.38 16.28C110.17 16.85 111.22 16.08 110.92 15.16L109.85 11.87C109.72 11.45 109.87 11 110.22 10.75L113.02 8.71C113.8 8.14 113.4 6.9 112.43 6.9L108.97 6.9C108.53 6.9 108.15 6.63 108.02 6.21L106.95 2.92C106.65 2 105.34 2 105.04 2.92Z" fill="#F14F4F" fill-opacity="1.000000" fill-rule="evenodd"/>
</svg>
