<svg width="44.000000" height="43.772461" viewBox="0 0 44 43.7725" fill="none" xmlns="http://www.w3.org/2000/svg" xmlns:xlink="http://www.w3.org/1999/xlink">
	<desc>
			Created with Pixso.
	</desc>
	<defs/>
	<mask id="mask47_763" mask-type="alpha" maskUnits="userSpaceOnUse" x="0.000000" y="0.000000" width="44.000000" height="43.772461">
		<path d="M0 21.88C0 9.79 9.84 0 22 0C34.15 0 44 9.79 44 21.88C44 33.97 34.15 43.77 22 43.77C9.84 43.77 0 33.97 0 21.88Z" fill="#FFFFFF" fill-opacity="1.000000" fill-rule="evenodd"/>
	</mask>
	<g mask="url(#mask47_763)">
		<path d="M0 21.88C0 9.79 9.84 0 22 0C34.15 0 44 9.79 44 21.88C44 33.97 34.15 43.77 22 43.77C9.84 43.77 0 33.97 0 21.88Z" fill="#0E5A4C" fill-opacity="1.000000" fill-rule="evenodd"/>
	</g>
	<g mask="url(#mask47_763)">
		<path d="M17.163 10.2839C18.4141 10.2273 18.8141 10.2134 21.9973 10.2134L22.001 10.2134C25.1853 10.2134 25.5839 10.2273 26.835 10.2839C28.0841 10.3408 28.9373 10.5376 29.6852 10.8262C30.4576 11.1241 31.1104 11.5229 31.7631 12.1722C32.4156 12.821 32.8167 13.4723 33.1173 14.24C33.4058 14.9822 33.6038 15.8304 33.6624 17.0731C33.7186 18.3181 33.7333 18.7161 33.7333 21.8861C33.7333 25.0563 33.7186 25.4531 33.6624 26.6982C33.6038 27.9404 33.4058 28.7889 33.1173 29.5314C32.8167 30.2988 32.4156 30.9501 31.7631 31.5989C31.1111 32.2482 30.4574 32.6479 29.6859 32.946C28.9395 33.2347 28.0858 33.4315 26.8367 33.4884C25.5851 33.545 25.1864 33.559 21.9995 33.559C18.8132 33.559 18.4136 33.545 17.162 33.4884C15.9131 33.4315 15.0602 33.2347 14.3137 32.946C13.5425 32.6479 12.8878 32.2482 12.2358 31.5989C11.5835 30.9501 11.1825 30.2988 10.8826 29.5311C10.5927 28.7889 10.3949 27.9407 10.3375 26.698C10.2808 25.4529 10.2666 25.0563 10.2666 21.8861C10.2666 18.7161 10.2812 18.3179 10.3373 17.0729C10.3934 15.8307 10.5914 14.9822 10.8823 14.2397C11.183 13.4723 11.584 12.821 12.2366 12.1722C12.8888 11.5232 13.5435 11.1244 14.3152 10.8262C15.0612 10.5376 15.9138 10.3408 17.163 10.2839ZM21.6096 12.3171L21.6101 12.3171C21.7355 12.3171 21.8658 12.3171 22.0012 12.3171C25.134 12.3171 25.5054 12.3284 26.7424 12.3843C27.8865 12.4364 28.5074 12.6265 28.921 12.7863C29.4685 12.9979 29.8589 13.2507 30.2694 13.6593C30.6801 14.0679 30.9342 14.4569 31.1475 15.0017C31.308 15.4127 31.4994 16.0304 31.5515 17.1685C31.6077 18.3989 31.6199 18.7686 31.6199 21.8838C31.6199 24.9989 31.6077 25.3685 31.5515 26.5991C31.4991 27.7372 31.308 28.3549 31.1475 28.7659C30.9347 29.3105 30.6801 29.6985 30.2694 30.1067C29.8586 30.5153 29.4688 30.7682 28.921 30.9797C28.5079 31.1403 27.8865 31.33 26.7424 31.382C25.5056 31.4379 25.134 31.4501 22.0012 31.4501C18.8682 31.4501 18.4968 31.4379 17.2599 31.382C16.1158 31.3295 15.495 31.1393 15.0812 30.9795C14.5336 30.7679 14.1425 30.515 13.7318 30.1064C13.3212 29.698 13.0669 29.3098 12.8538 28.7649C12.6931 28.3539 12.5017 27.7362 12.4497 26.5981C12.3934 25.3676 12.3822 24.9979 12.3822 21.8809C12.3822 18.7637 12.3934 18.396 12.4497 17.1655C12.502 16.0275 12.6931 15.4098 12.8538 14.9983C13.0664 14.4536 13.3212 14.0645 13.7318 13.6559C14.1425 13.2473 14.5336 12.9945 15.0812 12.7823C15.4948 12.6219 16.1158 12.4323 17.2599 12.3799C18.3423 12.3313 18.7617 12.3167 20.9486 12.3143L20.9486 12.3171C21.1528 12.3169 21.3724 12.317 21.6094 12.3171L21.6096 12.3171ZM26.8563 15.6554C26.8563 14.8818 27.4869 14.2551 28.2643 14.2551L28.2643 14.2546C29.0416 14.2546 29.6724 14.8821 29.6724 15.6554C29.6724 16.4287 29.0416 17.0562 28.2643 17.0562C27.4869 17.0562 26.8563 16.4287 26.8563 15.6554ZM22.0009 15.892C18.6733 15.8921 15.9755 18.576 15.9755 21.8864C15.9755 25.1968 18.6735 27.8796 22.0011 27.8796C25.3287 27.8796 28.0258 25.1968 28.0258 21.8864C28.0258 18.5759 25.3285 15.892 22.0009 15.892ZM25.9124 21.8864C25.9124 19.7374 24.1611 17.9955 22.0012 17.9955C19.8411 17.9955 18.0901 19.7374 18.0901 21.8864C18.0901 24.0352 19.8411 25.7773 22.0012 25.7773C24.1611 25.7773 25.9124 24.0352 25.9124 21.8864Z" clip-rule="evenodd" fill="#FFFFFF" fill-opacity="1.000000" fill-rule="evenodd"/>
	</g>
</svg>
