<svg width="241.510742" height="521.459229" viewBox="0 0 241.511 521.459" fill="none" xmlns="http://www.w3.org/2000/svg" xmlns:xlink="http://www.w3.org/1999/xlink">
	<desc>
			Created with Pixso.
	</desc>
	<defs/>
	<mask id="mask73_553" mask-type="alpha" maskUnits="userSpaceOnUse" x="0.000000" y="0.000000" width="241.510742" height="521.459229">
		<path id="Screen Shape" d="M68.26 19.26L173.24 19.26C181.78 19.26 188.7 12.36 188.7 3.05C188.78 1.4 190.1 0.08 191.75 0L217.03 0C230.55 0 241.51 10.92 241.51 24.4L241.51 497.05C241.51 510.53 230.55 521.45 217.03 521.45L24.47 521.45C10.95 521.45 0 510.53 0 497.05L0 24.4C0 10.92 10.95 0 24.47 0L49.75 0C51.4 0.08 52.72 1.4 52.8 3.04C52.81 12.36 59.73 19.26 68.26 19.26Z" fill="#FFFFFF" fill-opacity="1.000000" fill-rule="evenodd"/>
	</mask>
	<g mask="url(#mask73_553)">
		<path id="Screen [CHANGE ME]" d="M0 0L241.51 0L241.51 521.45L0 521.45L0 0Z" fill="#FFDCB3" fill-opacity="1.000000" fill-rule="evenodd"/>
	</g>
</svg>
