<svg width="466.000000" height="139.896606" viewBox="0 0 466 139.897" fill="none" xmlns="http://www.w3.org/2000/svg" xmlns:xlink="http://www.w3.org/1999/xlink">
	<desc>
			Created with Pixso.
	</desc>
	<defs>
		<filter id="filter_15_52_dd" x="0.000000" y="0.000000" width="466.000000" height="128.000000" filterUnits="userSpaceOnUse" color-interpolation-filters="sRGB">
			<feFlood flood-opacity="0" result="BackgroundImageFix"/>
			<feColorMatrix in="SourceAlpha" type="matrix" values="0 0 0 0 0 0 0 0 0 0 0 0 0 0 0 0 0 0 127 0" result="hardAlpha"/>
			<feOffset dx="4" dy="8"/>
			<feGaussianBlur stdDeviation="6.66667"/>
			<feComposite in2="hardAlpha" operator="out" k2="-1" k3="1"/>
			<feColorMatrix type="matrix" values="0 0 0 0 0 0 0 0 0 0.05098 0 0 0 0 0.32941 0 0 0 0.2 0"/>
			<feBlend mode="normal" in2="BackgroundImageFix" result="effect_dropShadow_1"/>
			<feBlend mode="normal" in="SourceGraphic" in2="effect_dropShadow_1" result="shape"/>
		</filter>
		<filter id="filter_15_55_dd" x="19.000000" y="100.000000" width="40.000000" height="39.896606" filterUnits="userSpaceOnUse" color-interpolation-filters="sRGB">
			<feFlood flood-opacity="0" result="BackgroundImageFix"/>
			<feColorMatrix in="SourceAlpha" type="matrix" values="0 0 0 0 0 0 0 0 0 0 0 0 0 0 0 0 0 0 127 0" result="hardAlpha"/>
			<feOffset dx="2" dy="4"/>
			<feGaussianBlur stdDeviation="3.33333"/>
			<feComposite in2="hardAlpha" operator="out" k2="-1" k3="1"/>
			<feColorMatrix type="matrix" values="0 0 0 0 0 0 0 0 0 0.05098 0 0 0 0 0.32941 0 0 0 0.2 0"/>
			<feBlend mode="normal" in2="BackgroundImageFix" result="effect_dropShadow_1"/>
			<feBlend mode="normal" in="SourceGraphic" in2="effect_dropShadow_1" result="shape"/>
		</filter>
	</defs>
	<g filter="url(#filter_15_52_dd)">
		<path id="Union" d="" fill="#FFFFFF" fill-opacity="1.000000" fill-rule="nonzero"/>
	</g>
	<path id="Заголовок" d="M130.59 27.97Q129.75 27.48 128.63 27.38L128.63 24.35L127.47 24.35L127.47 27.38Q125.82 27.51 124.85 28.39Q124.78 28.46 124.71 28.53Q124.52 28.72 124.37 28.93Q123.72 29.85 123.72 31.24Q123.72 32.38 124.18 33.21Q124.38 33.58 124.66 33.88Q125.01 34.25 125.48 34.53Q126.32 35.01 127.43 35.11L127.43 38.35L128.63 38.35L128.63 35.11Q130.21 34.97 131.16 34.13Q131.26 34.04 131.35 33.95Q131.55 33.75 131.7 33.53Q132.34 32.61 132.34 31.24Q132.34 30.11 131.88 29.28Q131.68 28.93 131.42 28.64Q131.06 28.25 130.59 27.97ZM42.42 31.9L43.62 35L44.93 35L41.04 24.96L39.9 24.96L36 35L37.27 35L38.46 31.9L42.42 31.9ZM40.78 27.35Q40.88 27.65 40.92 27.76L42.04 30.78L38.88 30.78L40.01 27.76Q40.1 27.52 40.22 27.11Q40.35 26.69 40.45 26.26Q40.5 26.43 40.59 26.74Q40.68 27.06 40.78 27.35ZM59.32 27.71Q58.68 27.35 57.84 27.35Q56.92 27.35 56.38 27.69Q55.89 27.99 55.58 28.41Q55.54 28.46 55.5 28.51L55.44 28.51L55.27 27.49L54.26 27.49L54.26 38.35L55.5 38.35L55.5 35.28Q55.5 35.01 55.47 34.65Q55.44 34.28 55.41 34.04L55.5 34.04Q55.82 34.48 56.39 34.81Q56.95 35.14 57.82 35.14Q58.65 35.14 59.29 34.78Q59.73 34.54 60.07 34.14Q60.92 33.15 60.92 31.23Q60.92 29.28 60.07 28.32Q59.74 27.94 59.32 27.71ZM67.43 27.77Q66.74 27.35 65.77 27.35Q64.92 27.35 64.25 27.7Q64.14 27.76 64.03 27.83Q63.87 27.93 63.73 28.04Q63.2 28.49 62.87 29.18Q62.45 30.07 62.45 31.3Q62.45 32.54 62.91 33.41Q63.21 33.97 63.66 34.35Q63.9 34.55 64.18 34.7Q65 35.14 66.07 35.14Q66.84 35.14 67.4 35.02Q67.96 34.9 68.53 34.65L68.53 33.57Q67.94 33.82 67.39 33.95Q66.84 34.09 66.12 34.09Q65.22 34.09 64.64 33.65Q64.5 33.55 64.38 33.42Q63.76 32.76 63.73 31.48L68.87 31.48L68.87 30.74Q68.87 29.72 68.49 28.96Q68.25 28.46 67.88 28.11Q67.67 27.92 67.43 27.77ZM72.01 34.73Q72.79 35.14 73.78 35.14Q74.42 35.14 74.88 35.03Q75.33 34.93 75.71 34.73L75.71 33.64Q75.32 33.82 74.85 33.95Q74.38 34.07 73.77 34.07Q73.02 34.07 72.53 33.71Q72.32 33.56 72.16 33.35Q71.62 32.63 71.62 31.27Q71.62 29.5 72.48 28.83Q73 28.43 73.84 28.43Q74.23 28.43 74.68 28.54Q75.12 28.65 75.46 28.78L75.84 27.76Q75.5 27.59 74.97 27.47Q74.44 27.35 73.86 27.35Q72.86 27.35 72.07 27.76Q71.9 27.85 71.74 27.95Q71.18 28.35 70.81 29.03Q70.35 29.9 70.35 31.29Q70.35 32.62 70.79 33.47Q71.12 34.1 71.63 34.49Q71.81 34.62 72.01 34.73ZM104.83 27.77Q104.13 27.35 103.17 27.35Q102.32 27.35 101.65 27.7Q101.53 27.76 101.42 27.83Q101.27 27.93 101.13 28.04Q100.59 28.49 100.26 29.18Q99.85 30.07 99.85 31.3Q99.85 32.54 100.3 33.41Q100.6 33.97 101.06 34.35Q101.3 34.55 101.58 34.7Q102.4 35.14 103.46 35.14Q104.23 35.14 104.79 35.02Q105.35 34.9 105.93 34.65L105.93 33.57Q105.34 33.82 104.78 33.95Q104.23 34.09 103.52 34.09Q102.61 34.09 102.03 33.65Q101.89 33.55 101.77 33.42Q101.15 32.76 101.12 31.48L106.26 31.48L106.26 30.74Q106.26 29.72 105.89 28.96Q105.65 28.46 105.27 28.11Q105.07 27.92 104.83 27.77ZM120.81 27.77Q120.12 27.35 119.16 27.35Q118.3 27.35 117.63 27.7Q117.52 27.76 117.41 27.83Q117.26 27.93 117.12 28.04Q116.58 28.49 116.25 29.18Q115.84 30.07 115.84 31.3Q115.84 32.54 116.29 33.41Q116.59 33.97 117.04 34.35Q117.28 34.55 117.57 34.7Q118.39 35.14 119.45 35.14Q120.22 35.14 120.78 35.02Q121.34 34.9 121.91 34.65L121.91 33.57Q121.33 33.82 120.77 33.95Q120.22 34.09 119.5 34.09Q118.6 34.09 118.02 33.65Q117.88 33.55 117.76 33.42Q117.14 32.76 117.11 31.48L122.25 31.48L122.25 30.74Q122.25 29.72 121.88 28.96Q121.64 28.46 121.26 28.11Q121.06 27.92 120.81 27.77ZM139.92 34.07Q140.83 33.05 140.83 31.23Q140.83 29.98 140.39 29.12Q140.07 28.5 139.58 28.1Q139.39 27.94 139.17 27.81Q139.12 27.78 139.07 27.76Q138.33 27.35 137.37 27.35Q136.18 27.35 135.36 27.9Q135.07 28.09 134.82 28.36Q134.81 28.37 134.8 28.38Q133.88 29.38 133.88 31.23Q133.88 32.48 134.33 33.35Q134.68 34.03 135.22 34.46Q135.38 34.58 135.55 34.68Q135.67 34.75 135.8 34.81Q136.49 35.14 137.33 35.14Q138.49 35.14 139.3 34.6Q139.62 34.4 139.88 34.11Q139.9 34.09 139.92 34.07ZM195.74 34.07Q196.65 33.05 196.65 31.23Q196.65 29.98 196.2 29.12Q195.89 28.5 195.4 28.1Q195.2 27.94 194.98 27.81Q194.94 27.78 194.89 27.76Q194.15 27.35 193.19 27.35Q192 27.35 191.18 27.9Q190.89 28.09 190.64 28.36Q190.63 28.37 190.62 28.38Q189.7 29.38 189.7 31.23Q189.7 32.48 190.15 33.35Q190.5 34.03 191.04 34.46Q191.2 34.58 191.37 34.68Q191.49 34.75 191.62 34.81Q192.3 35.14 193.15 35.14Q194.31 35.14 195.12 34.6Q195.44 34.4 195.7 34.11Q195.72 34.09 195.74 34.07ZM203.65 27.71Q203 27.35 202.16 27.35Q201.25 27.35 200.7 27.69Q200.22 27.99 199.9 28.41Q199.86 28.46 199.82 28.51L199.77 28.51L199.6 27.49L198.59 27.49L198.59 38.35L199.82 38.35L199.82 35.28Q199.82 35.01 199.79 34.65Q199.77 34.28 199.74 34.04L199.82 34.04Q200.15 34.48 200.71 34.81Q201.28 35.14 202.15 35.14Q202.98 35.14 203.62 34.78Q204.05 34.54 204.39 34.14Q205.24 33.15 205.24 31.23Q205.24 29.28 204.39 28.32Q204.06 27.94 203.65 27.71ZM212.26 27.71Q211.61 27.35 210.77 27.35Q209.86 27.35 209.31 27.69Q208.83 27.99 208.51 28.41Q208.47 28.46 208.43 28.51L208.38 28.51L208.21 27.49L207.2 27.49L207.2 38.35L208.43 38.35L208.43 35.28Q208.43 35.01 208.4 34.65Q208.38 34.28 208.35 34.04L208.43 34.04Q208.76 34.48 209.32 34.81Q209.89 35.14 210.76 35.14Q211.59 35.14 212.23 34.78Q212.66 34.54 213 34.14Q213.85 33.15 213.85 31.23Q213.85 29.28 213 28.32Q212.67 27.94 212.26 27.71ZM220.37 27.77Q219.68 27.35 218.71 27.35Q217.86 27.35 217.19 27.7Q217.07 27.76 216.97 27.83Q216.81 27.93 216.67 28.04Q216.13 28.49 215.8 29.18Q215.39 30.07 215.39 31.3Q215.39 32.54 215.85 33.41Q216.14 33.97 216.6 34.35Q216.84 34.55 217.12 34.7Q217.94 35.14 219 35.14Q219.77 35.14 220.33 35.02Q220.89 34.9 221.47 34.65L221.47 33.57Q220.88 33.82 220.33 33.95Q219.77 34.09 219.06 34.09Q218.16 34.09 217.58 33.65Q217.44 33.55 217.31 33.42Q216.69 32.76 216.67 31.48L221.8 31.48L221.8 30.74Q221.8 29.72 221.43 28.96Q221.19 28.46 220.82 28.11Q220.61 27.92 220.37 27.77ZM224.94 34.73Q225.72 35.14 226.72 35.14Q227.36 35.14 227.82 35.03Q228.27 34.93 228.65 34.73L228.65 33.64Q228.26 33.82 227.79 33.95Q227.32 34.07 226.7 34.07Q225.95 34.07 225.46 33.71Q225.26 33.56 225.1 33.35Q224.56 32.63 224.56 31.27Q224.56 29.5 225.42 28.83Q225.94 28.43 226.77 28.43Q227.17 28.43 227.61 28.54Q228.06 28.65 228.4 28.78L228.78 27.76Q228.44 27.59 227.91 27.47Q227.37 27.35 226.8 27.35Q225.79 27.35 225 27.76Q224.83 27.85 224.68 27.95Q224.11 28.35 223.75 29.03Q223.29 29.9 223.29 31.29Q223.29 32.62 223.73 33.47Q224.06 34.1 224.57 34.49Q224.75 34.62 224.94 34.73ZM244.78 34.07Q245.69 33.05 245.69 31.23Q245.69 29.98 245.25 29.12Q244.93 28.5 244.44 28.1Q244.25 27.94 244.03 27.81Q243.98 27.78 243.93 27.76Q243.19 27.35 242.23 27.35Q241.04 27.35 240.22 27.9Q239.93 28.09 239.68 28.36Q239.67 28.37 239.66 28.38Q238.74 29.38 238.74 31.23Q238.74 32.48 239.19 33.35Q239.54 34.03 240.08 34.46Q240.24 34.58 240.41 34.68Q240.53 34.75 240.66 34.81Q241.35 35.14 242.19 35.14Q243.35 35.14 244.16 34.6Q244.48 34.4 244.74 34.11Q244.76 34.09 244.78 34.07ZM269.24 27.77Q268.55 27.35 267.58 27.35Q266.73 27.35 266.06 27.7Q265.95 27.76 265.84 27.83Q265.69 27.93 265.54 28.04Q265.01 28.49 264.68 29.18Q264.26 30.07 264.26 31.3Q264.26 32.54 264.72 33.41Q265.02 33.97 265.47 34.35Q265.71 34.55 265.99 34.7Q266.81 35.14 267.88 35.14Q268.65 35.14 269.21 35.02Q269.77 34.9 270.34 34.65L270.34 33.57Q269.75 33.82 269.2 33.95Q268.65 34.09 267.93 34.09Q267.03 34.09 266.45 33.65Q266.31 33.55 266.19 33.42Q265.57 32.76 265.54 31.48L270.68 31.48L270.68 30.74Q270.68 29.72 270.3 28.96Q270.06 28.46 269.69 28.11Q269.49 27.92 269.24 27.77ZM345.82 27.77Q345.13 27.35 344.16 27.35Q343.31 27.35 342.64 27.7Q342.53 27.76 342.42 27.83Q342.27 27.93 342.12 28.04Q341.59 28.49 341.26 29.18Q340.84 30.07 340.84 31.3Q340.84 32.54 341.3 33.41Q341.6 33.97 342.05 34.35Q342.29 34.55 342.57 34.7Q343.39 35.14 344.46 35.14Q345.23 35.14 345.79 35.02Q346.35 34.9 346.92 34.65L346.92 33.57Q346.33 33.82 345.78 33.95Q345.23 34.09 344.51 34.09Q343.61 34.09 343.03 33.65Q342.89 33.55 342.77 33.42Q342.15 32.76 342.12 31.48L347.26 31.48L347.26 30.74Q347.26 29.72 346.88 28.96Q346.64 28.46 346.27 28.11Q346.07 27.92 345.82 27.77ZM350.4 34.73Q351.18 35.14 352.17 35.14Q352.81 35.14 353.27 35.03Q353.72 34.93 354.1 34.73L354.1 33.64Q353.71 33.82 353.24 33.95Q352.77 34.07 352.16 34.07Q351.41 34.07 350.92 33.71Q350.71 33.56 350.55 33.35Q350.02 32.63 350.02 31.27Q350.02 29.5 350.87 28.83Q351.39 28.43 352.23 28.43Q352.62 28.43 353.07 28.54Q353.52 28.65 353.85 28.78L354.23 27.76Q353.89 27.59 353.36 27.47Q352.83 27.35 352.25 27.35Q351.25 27.35 350.46 27.76Q350.29 27.85 350.13 27.95Q349.57 28.35 349.2 29.03Q348.74 29.9 348.74 31.29Q348.74 32.62 349.18 33.47Q349.51 34.1 350.02 34.49Q350.2 34.62 350.4 34.73ZM368.03 34.07Q368.93 33.05 368.93 31.23Q368.93 29.98 368.49 29.12Q368.17 28.5 367.68 28.1Q367.49 27.94 367.27 27.81Q367.22 27.78 367.18 27.76Q366.43 27.35 365.47 27.35Q364.29 27.35 363.46 27.9Q363.17 28.09 362.92 28.36Q362.91 28.37 362.9 28.38Q361.98 29.38 361.98 31.23Q361.98 32.48 362.43 33.35Q362.78 34.03 363.33 34.46Q363.48 34.58 363.66 34.68Q363.78 34.75 363.9 34.81Q364.59 35.14 365.43 35.14Q366.59 35.14 367.4 34.6Q367.72 34.4 367.98 34.11Q368.01 34.09 368.03 34.07ZM375.93 27.71Q375.29 27.35 374.45 27.35Q373.53 27.35 372.99 27.69Q372.5 27.99 372.19 28.41Q372.15 28.46 372.11 28.51L372.05 28.51L371.88 27.49L370.87 27.49L370.87 38.35L372.11 38.35L372.11 35.28Q372.11 35.01 372.08 34.65Q372.05 34.28 372.02 34.04L372.11 34.04Q372.43 34.48 373 34.81Q373.56 35.14 374.43 35.14Q375.27 35.14 375.9 34.78Q376.34 34.54 376.68 34.14Q377.53 33.15 377.53 31.23Q377.53 29.28 376.68 28.32Q376.35 27.94 375.93 27.71ZM385.11 34.07Q386.01 33.05 386.01 31.23Q386.01 29.98 385.57 29.12Q385.25 28.5 384.76 28.1Q384.57 27.94 384.35 27.81Q384.3 27.78 384.26 27.76Q383.51 27.35 382.55 27.35Q381.37 27.35 380.54 27.9Q380.25 28.09 380 28.36Q379.99 28.37 379.98 28.38Q379.06 29.38 379.06 31.23Q379.06 32.48 379.51 33.35Q379.86 34.03 380.41 34.46Q380.56 34.58 380.74 34.68Q380.86 34.75 380.98 34.81Q381.67 35.14 382.51 35.14Q383.67 35.14 384.48 34.6Q384.8 34.4 385.06 34.11Q385.09 34.09 385.11 34.07ZM51.7 33.96L51.7 27.49L47.75 27.49Q47.75 27.86 47.73 28.23Q47.64 29.59 47.26 30.93Q46.78 32.63 45.81 33.96L45.21 33.96L45.21 37.6L46.38 37.6L46.38 35L51.61 35L51.61 37.6L52.8 37.6L52.8 33.96L51.7 33.96ZM82.26 32.58Q82.28 32.24 82.28 32.07L82.28 27.49L81.12 27.49L81.12 35L82.64 35L86.63 28.72Q86.62 28.9 86.61 29.26Q86.59 29.62 86.59 29.98Q86.58 30.35 86.58 30.57L86.58 35L87.72 35L87.72 27.49L86.21 27.49L82.2 33.78Q82.21 33.58 82.23 33.25Q82.25 32.91 82.26 32.58ZM96.48 28.53L98.93 28.53L98.93 27.49L92.84 27.49L92.84 28.53L95.26 28.53L95.26 35L96.48 35L96.48 28.53ZM112.63 35L113.88 35L113.88 27.49L109.35 27.49Q109.12 30.91 108.66 32.52Q108.24 33.99 107.58 34.12Q107.51 34.13 107.45 34.13Q107.35 34.13 107.26 34.11Q107.16 34.1 107.07 34.07L107.07 35Q107.18 35.05 107.36 35.07Q107.54 35.09 107.72 35.09Q108.08 35.09 108.39 34.96Q108.77 34.8 109.06 34.44Q109.59 33.78 109.91 32.33Q110.24 30.88 110.42 28.51L112.63 28.51L112.63 35ZM144.01 30.61L144.01 27.49L142.77 27.49L142.77 35L144.01 35L144.01 31.65L148.08 31.65L148.08 35L149.31 35L149.31 27.49L148.08 27.49L148.08 30.61L144.01 30.61ZM160.89 33.96L160.89 27.49L156.94 27.49Q156.94 27.86 156.91 28.23Q156.82 29.59 156.44 30.93Q155.96 32.63 155 33.96L154.39 33.96L154.39 37.6L155.57 37.6L155.57 35L160.79 35L160.79 37.6L161.98 37.6L161.98 33.96L160.89 33.96ZM167.92 35L169.16 35L169.16 27.49L164.64 27.49Q164.4 30.91 163.95 32.52Q163.53 33.99 162.86 34.12Q162.8 34.13 162.74 34.13Q162.64 34.13 162.54 34.11Q162.44 34.1 162.36 34.07L162.36 35Q162.47 35.05 162.64 35.07Q162.82 35.09 163 35.09Q163.37 35.09 163.68 34.96Q164.06 34.8 164.35 34.44Q164.88 33.78 165.2 32.33Q165.52 30.88 165.71 28.51L167.92 28.51L167.92 35ZM170.58 35L172 35L173.94 32.01L175.76 32.01L175.76 35L176.99 35L176.99 27.49L173.63 27.49Q172.42 27.49 171.7 28.06Q171.48 28.23 171.33 28.44Q170.97 28.95 170.97 29.7Q170.97 30.36 171.22 30.8Q171.42 31.15 171.72 31.38Q171.79 31.44 171.88 31.49Q172.28 31.73 172.72 31.84L170.58 35ZM188.78 27.49L187.43 27.49L184.23 31.13L184.23 27.49L182.99 27.49L182.99 35L184.23 35L184.23 31.19L187.62 35L189.04 35L185.57 31.1L188.78 27.49ZM236.77 35L236.77 27.49L230.43 27.49L230.43 35L231.66 35L231.66 28.54L235.54 28.54L235.54 35L236.77 35ZM248.87 30.61L248.87 27.49L247.63 27.49L247.63 35L248.87 35L248.87 31.65L252.94 31.65L252.94 35L254.17 35L254.17 27.49L252.94 27.49L252.94 30.61L248.87 30.61ZM262.12 33.96L262.12 27.49L258.17 27.49Q258.17 27.86 258.15 28.23Q258.06 29.59 257.68 30.93Q257.2 32.63 256.23 33.96L255.63 33.96L255.63 37.6L256.8 37.6L256.8 35L262.03 35L262.03 37.6L263.22 37.6L263.22 33.96L262.12 33.96ZM273.81 30.61L273.81 27.49L272.58 27.49L272.58 35L273.81 35L273.81 31.65L277.89 31.65L277.89 35L279.12 35L279.12 27.49L277.89 27.49L277.89 30.61L273.81 30.61ZM287.7 37.6L288.91 37.6L288.91 33.97L287.84 33.97L287.84 27.49L286.61 27.49L286.61 33.96L282.73 33.96L282.73 27.49L281.5 27.49L281.5 35L287.7 35L287.7 37.6ZM291.5 32.58Q291.51 32.24 291.51 32.07L291.51 27.49L290.35 27.49L290.35 35L291.87 35L295.86 28.72Q295.85 28.9 295.84 29.26Q295.82 29.62 295.82 29.98Q295.81 30.35 295.81 30.57L295.81 35L296.95 35L296.95 27.49L295.44 27.49L291.43 33.78Q291.44 33.58 291.46 33.25Q291.48 32.91 291.5 32.58ZM300.5 32.58Q300.51 32.24 300.51 32.07L300.51 27.49L299.35 27.49L299.35 35L300.88 35L304.87 28.72Q304.85 28.9 304.84 29.26Q304.82 29.62 304.82 29.98Q304.81 30.35 304.81 30.57L304.81 35L305.96 35L305.96 27.49L304.45 27.49L300.43 33.78Q300.44 33.58 300.46 33.25Q300.48 32.91 300.5 32.58ZM316.43 32.58Q316.44 32.24 316.44 32.07L316.44 27.49L315.28 27.49L315.28 35L316.81 35L320.8 28.72Q320.78 28.9 320.77 29.26Q320.76 29.62 320.75 29.98Q320.74 30.35 320.74 30.57L320.74 35L321.89 35L321.89 27.49L320.38 27.49L316.36 33.78Q316.37 33.58 316.4 33.25Q316.42 32.91 316.43 32.58ZM325.52 30.61L325.52 27.49L324.28 27.49L324.28 35L325.52 35L325.52 31.65L329.59 31.65L329.59 35L330.82 35L330.82 27.49L329.59 27.49L329.59 30.61L325.52 30.61ZM338.98 30.29Q339.24 29.93 339.24 29.38Q339.24 28.71 338.91 28.31Q338.89 28.28 338.86 28.25L338.86 28.25Q338.49 27.84 337.86 27.67Q337.22 27.49 336.42 27.49L333.2 27.49L333.2 35L336.43 35Q338.06 35 338.77 34.37Q339.11 34.07 339.29 33.68Q339.47 33.28 339.47 32.8Q339.47 32.13 339.14 31.74Q339.06 31.64 338.95 31.56Q338.85 31.48 338.74 31.41Q338.3 31.14 337.74 31.06L337.74 31.01Q338.4 30.87 338.82 30.47Q338.91 30.39 338.98 30.29ZM358.61 28.53L361.06 28.53L361.06 27.49L354.97 27.49L354.97 28.53L357.4 28.53L357.4 35L358.61 35L358.61 28.53ZM393.73 30.29Q393.99 29.93 393.99 29.38Q393.99 28.71 393.66 28.31Q393.64 28.28 393.62 28.25L393.61 28.25Q393.24 27.84 392.61 27.67Q391.97 27.49 391.17 27.49L387.96 27.49L387.96 35L391.19 35Q392.81 35 393.52 34.37Q393.87 34.07 394.04 33.68Q394.23 33.28 394.23 32.8Q394.23 32.13 393.89 31.74Q393.81 31.64 393.71 31.56Q393.6 31.48 393.49 31.41Q393.05 31.14 392.49 31.06L392.49 31.01Q393.15 30.87 393.57 30.47Q393.66 30.39 393.73 30.29ZM64.69 28.64Q65.13 28.36 65.76 28.36Q66.48 28.36 66.9 28.71Q67.03 28.82 67.13 28.96Q67.56 29.55 67.58 30.5L63.76 30.5Q63.86 29.49 64.36 28.92Q64.51 28.76 64.69 28.64ZM102.09 28.64Q102.53 28.36 103.15 28.36Q103.88 28.36 104.3 28.71Q104.42 28.82 104.52 28.96Q104.96 29.55 104.97 30.5L101.15 30.5Q101.25 29.49 101.76 28.92Q101.91 28.76 102.09 28.64ZM118.08 28.64Q118.52 28.36 119.14 28.36Q119.86 28.36 120.29 28.71Q120.41 28.82 120.51 28.96Q120.95 29.55 120.96 30.5L117.14 30.5Q117.24 29.49 117.75 28.92Q117.9 28.76 118.08 28.64ZM217.63 28.64Q218.07 28.36 218.7 28.36Q219.42 28.36 219.84 28.71Q219.97 28.82 220.07 28.96Q220.5 29.55 220.51 30.5L216.69 30.5Q216.79 29.49 217.3 28.92Q217.45 28.76 217.63 28.64ZM266.5 28.64Q266.94 28.36 267.57 28.36Q268.29 28.36 268.72 28.71Q268.84 28.82 268.94 28.96Q269.37 29.55 269.39 30.5L265.57 30.5Q265.67 29.49 266.18 28.92Q266.32 28.76 266.5 28.64ZM343.08 28.64Q343.52 28.36 344.15 28.36Q344.87 28.36 345.3 28.71Q345.42 28.82 345.52 28.96Q345.95 29.55 345.97 30.5L342.15 30.5Q342.25 29.49 342.76 28.92Q342.9 28.76 343.08 28.64ZM56.11 28.9Q56.59 28.39 57.61 28.39Q58.27 28.39 58.71 28.7Q58.96 28.88 59.14 29.16Q59.64 29.93 59.64 31.21Q59.64 32.06 59.42 32.71Q59.21 33.36 58.77 33.74Q58.69 33.8 58.62 33.85Q58.21 34.11 57.64 34.11Q56.63 34.11 56.14 33.61Q56.03 33.5 55.95 33.36Q55.5 32.62 55.5 31.23L55.5 30.99Q55.53 29.68 55.99 29.03Q56.05 28.96 56.11 28.9ZM135.68 33.34Q135.16 32.56 135.16 31.23Q135.16 29.9 135.67 29.14Q135.8 28.95 135.98 28.81Q136.48 28.39 137.34 28.39Q138.2 28.39 138.71 28.81Q138.88 28.95 139.02 29.14Q139.55 29.9 139.55 31.23Q139.55 32.56 139.02 33.34Q138.87 33.56 138.66 33.72Q138.16 34.11 137.36 34.11Q136.53 34.11 136.02 33.71Q135.83 33.55 135.68 33.34ZM191.5 33.34Q190.98 32.56 190.98 31.23Q190.98 29.9 191.49 29.14Q191.62 28.95 191.79 28.81Q192.3 28.39 193.16 28.39Q194.02 28.39 194.53 28.81Q194.7 28.95 194.84 29.14Q195.37 29.9 195.37 31.23Q195.37 32.56 194.84 33.34Q194.68 33.56 194.48 33.72Q193.98 34.11 193.17 34.11Q192.34 34.11 191.84 33.71Q191.64 33.55 191.5 33.34ZM200.43 28.9Q200.92 28.39 201.94 28.39Q202.59 28.39 203.03 28.7Q203.29 28.88 203.47 29.16Q203.97 29.93 203.97 31.21Q203.97 32.06 203.75 32.71Q203.53 33.36 203.09 33.74Q203.02 33.8 202.94 33.85Q202.54 34.11 201.96 34.11Q200.95 34.11 200.47 33.61Q200.36 33.5 200.28 33.36Q199.82 32.62 199.82 31.23L199.82 30.99Q199.85 29.68 200.32 29.03Q200.37 28.96 200.43 28.9ZM209.04 28.9Q209.53 28.39 210.55 28.39Q211.2 28.39 211.64 28.7Q211.9 28.88 212.08 29.16Q212.58 29.93 212.58 31.21Q212.58 32.06 212.36 32.71Q212.14 33.36 211.7 33.74Q211.63 33.8 211.55 33.85Q211.15 34.11 210.57 34.11Q209.56 34.11 209.08 33.61Q208.97 33.5 208.89 33.36Q208.43 32.62 208.43 31.23L208.43 30.99Q208.46 29.68 208.93 29.03Q208.98 28.96 209.04 28.9ZM240.54 33.34Q240.02 32.56 240.02 31.23Q240.02 29.9 240.53 29.14Q240.66 28.95 240.84 28.81Q241.34 28.39 242.2 28.39Q243.06 28.39 243.57 28.81Q243.74 28.95 243.88 29.14Q244.41 29.9 244.41 31.23Q244.41 32.56 243.88 33.34Q243.73 33.56 243.52 33.72Q243.02 34.11 242.22 34.11Q241.39 34.11 240.88 33.71Q240.69 33.55 240.54 33.34ZM363.78 33.34Q363.26 32.56 363.26 31.23Q363.26 29.9 363.78 29.14Q363.91 28.95 364.08 28.81Q364.58 28.39 365.44 28.39Q366.3 28.39 366.81 28.81Q366.99 28.95 367.12 29.14Q367.65 29.9 367.65 31.23Q367.65 32.56 367.12 33.34Q366.97 33.56 366.76 33.72Q366.26 34.11 365.46 34.11Q364.63 34.11 364.12 33.71Q363.93 33.55 363.78 33.34ZM372.72 28.9Q373.2 28.39 374.22 28.39Q374.88 28.39 375.32 28.7Q375.57 28.88 375.75 29.16Q376.25 29.93 376.25 31.21Q376.25 32.06 376.03 32.71Q375.82 33.36 375.38 33.74Q375.3 33.8 375.23 33.85Q374.82 34.11 374.25 34.11Q373.24 34.11 372.75 33.61Q372.64 33.5 372.56 33.36Q372.11 32.62 372.11 31.23L372.11 30.99Q372.14 29.68 372.6 29.03Q372.66 28.96 372.72 28.9ZM380.86 33.34Q380.34 32.56 380.34 31.23Q380.34 29.9 380.86 29.14Q380.99 28.95 381.16 28.81Q381.66 28.39 382.52 28.39Q383.38 28.39 383.89 28.81Q384.07 28.95 384.2 29.14Q384.74 29.9 384.74 31.23Q384.74 32.56 384.2 33.34Q384.05 33.56 383.84 33.72Q383.34 34.11 382.54 34.11Q381.71 34.11 381.2 33.71Q381.01 33.55 380.86 33.34ZM125.62 29.22Q126.21 28.53 127.47 28.4L127.47 34.1Q126.25 33.98 125.65 33.3Q125.63 33.27 125.6 33.25Q125.01 32.52 125.01 31.24Q125.01 29.97 125.6 29.25Q125.61 29.23 125.62 29.22ZM130.43 33.29Q129.84 33.97 128.63 34.1L128.63 28.42Q129.84 28.55 130.43 29.22Q130.45 29.25 130.47 29.27Q131.07 29.98 131.07 31.24Q131.07 32.5 130.48 33.23Q130.46 33.26 130.43 33.29ZM48.55 30.43Q48.79 29.41 48.85 28.46L50.51 28.46L50.51 33.96L47.08 33.96Q47.57 33.29 47.94 32.36Q48.31 31.44 48.55 30.43ZM157.74 30.43Q157.98 29.41 158.03 28.46L159.7 28.46L159.7 33.96L156.27 33.96Q156.76 33.29 157.13 32.36Q157.5 31.44 157.74 30.43ZM258.97 30.43Q259.21 29.41 259.27 28.46L260.93 28.46L260.93 33.96L257.5 33.96Q257.99 33.29 258.36 32.36Q258.74 31.44 258.97 30.43ZM172.34 30.39Q172.16 30.11 172.16 29.72Q172.16 29.4 172.29 29.15Q172.38 28.98 172.53 28.85Q172.9 28.51 173.75 28.51L175.76 28.51L175.76 30.99L173.99 30.99Q173.13 30.99 172.64 30.68Q172.46 30.56 172.34 30.39ZM337.82 28.96Q337.99 29.18 337.99 29.54Q337.99 29.78 337.89 29.97Q337.55 30.57 336.13 30.57L334.43 30.57L334.43 28.51L336.35 28.51Q337.22 28.51 337.6 28.76Q337.73 28.84 337.82 28.96ZM392.57 28.96Q392.74 29.18 392.74 29.54Q392.74 29.78 392.64 29.97Q392.3 30.57 390.88 30.57L389.19 30.57L389.19 28.51L391.11 28.51Q391.97 28.51 392.36 28.76Q392.49 28.84 392.57 28.96ZM338 32.13Q338.2 32.39 338.2 32.8Q338.2 33.23 337.99 33.49Q337.88 33.63 337.71 33.73Q337.22 34 336.29 34L334.43 34L334.43 31.59L336.27 31.59Q337.22 31.59 337.71 31.87Q337.89 31.98 338 32.13ZM392.76 32.13Q392.95 32.39 392.95 32.8Q392.95 33.23 392.74 33.49Q392.63 33.63 392.46 33.73Q391.97 34 391.05 34L389.19 34L389.19 31.59L391.02 31.59Q391.97 31.59 392.46 31.87Q392.64 31.98 392.76 32.13ZM397.22 34.46C397.22 34.84 396.9 35.11 396.49 35.11C396.1 35.11 395.78 34.84 395.78 34.46C395.78 34.03 396.1 33.79 396.49 33.79C396.9 33.79 397.22 34.03 397.22 34.46ZM309.49 34.37C309.5 34.46 309.51 34.54 309.5 34.57C309.49 34.67 309.46 34.79 309.41 34.91L309 36.23L308.31 36.23L308.62 35.14C308.34 35.04 308.13 34.84 308.13 34.52C308.13 34.13 308.42 33.87 308.81 33.87C309.14 33.87 309.39 34.06 309.49 34.35L309.49 34.37ZM255.29 46.64Q254.55 48.02 254.55 50.49Q254.55 52.76 255.47 53.95Q255.9 54.49 256.46 54.79Q257.11 55.14 257.95 55.14Q258.97 55.14 259.74 54.72Q259.96 54.6 260.15 54.45Q260.63 54.07 260.95 53.47Q261.38 52.63 261.38 51.38Q261.38 49.93 260.68 49Q260.66 48.98 260.64 48.95Q260.45 48.71 260.22 48.53Q259.53 48.01 258.44 48.01Q257.82 48.01 257.34 48.21Q256.86 48.4 256.52 48.68Q256.17 48.96 255.98 49.23L255.89 49.23Q255.96 47.65 256.49 46.9Q256.75 46.54 257.09 46.31Q257.46 46.05 257.94 45.95Q258.37 45.85 258.97 45.75Q259.57 45.64 260.19 45.54Q260.81 45.43 261.3 45.36L261.09 44.29Q260.33 44.41 259.46 44.57Q258.59 44.72 257.69 44.92Q256.69 45.13 256.03 45.71Q255.59 46.1 255.29 46.64ZM43.04 45.55Q42.09 45 40.21 45L37.35 45L37.35 55L40.87 55Q42.48 55 43.41 54.25Q43.71 54.01 43.92 53.69Q44.34 53.06 44.34 52.15Q44.34 51.37 44.04 50.88Q43.9 50.64 43.71 50.46Q43.5 50.26 43.24 50.12Q42.73 49.86 42.1 49.76L42.1 49.69Q42.95 49.53 43.44 49.02Q43.48 48.98 43.51 48.94Q43.61 48.82 43.69 48.69Q44 48.18 44 47.48Q44 46.51 43.53 45.95Q43.33 45.71 43.04 45.55ZM42.22 48.84Q41.75 49.26 40.46 49.26L38.61 49.26L38.61 46.08L40.26 46.08Q41.54 46.08 42.12 46.44Q42.3 46.55 42.42 46.7Q42.7 47.05 42.7 47.62Q42.7 48.3 42.37 48.7Q42.3 48.78 42.22 48.84ZM51.91 54.07Q52.81 53.05 52.81 51.23Q52.81 49.98 52.37 49.12Q52.05 48.5 51.56 48.1Q51.37 47.94 51.15 47.81Q51.1 47.78 51.06 47.76Q50.31 47.35 49.35 47.35Q48.17 47.35 47.34 47.9Q47.05 48.09 46.8 48.36Q46.79 48.37 46.78 48.38Q45.86 49.38 45.86 51.23Q45.86 52.48 46.31 53.35Q46.66 54.03 47.21 54.46Q47.36 54.58 47.54 54.68Q47.66 54.75 47.78 54.81Q48.47 55.14 49.31 55.14Q50.47 55.14 51.28 54.6Q51.6 54.4 51.86 54.11Q51.88 54.09 51.91 54.07ZM68.55 47.71Q67.9 47.35 67.06 47.35Q66.15 47.35 65.6 47.69Q65.12 47.99 64.8 48.41Q64.76 48.46 64.72 48.51L64.67 48.51L64.5 47.49L63.49 47.49L63.49 58.35L64.72 58.35L64.72 55.28Q64.72 55.01 64.69 54.65Q64.67 54.28 64.64 54.04L64.72 54.04Q65.05 54.48 65.61 54.81Q66.18 55.14 67.05 55.14Q67.88 55.14 68.52 54.78Q68.95 54.54 69.29 54.14Q70.14 53.15 70.14 51.23Q70.14 49.28 69.29 48.32Q68.96 47.94 68.55 47.71ZM77.72 54.07Q78.63 53.05 78.63 51.23Q78.63 49.98 78.18 49.12Q77.87 48.5 77.38 48.1Q77.18 47.94 76.96 47.81Q76.92 47.78 76.87 47.76Q76.13 47.35 75.17 47.35Q73.98 47.35 73.16 47.9Q72.86 48.09 72.62 48.36Q72.61 48.37 72.6 48.38Q71.68 49.38 71.68 51.23Q71.68 52.48 72.13 53.35Q72.48 54.03 73.02 54.46Q73.18 54.58 73.35 54.68Q73.47 54.75 73.6 54.81Q74.28 55.14 75.13 55.14Q76.29 55.14 77.1 54.6Q77.42 54.4 77.68 54.11Q77.7 54.09 77.72 54.07ZM81.81 54.73Q82.59 55.14 83.58 55.14Q84.22 55.14 84.68 55.03Q85.13 54.93 85.51 54.73L85.51 53.64Q85.12 53.82 84.65 53.95Q84.18 54.07 83.57 54.07Q82.82 54.07 82.33 53.71Q82.12 53.56 81.96 53.35Q81.42 52.63 81.42 51.27Q81.42 49.5 82.28 48.83Q82.8 48.43 83.64 48.43Q84.03 48.43 84.48 48.54Q84.92 48.65 85.26 48.78L85.64 47.76Q85.3 47.59 84.77 47.47Q84.24 47.35 83.66 47.35Q82.66 47.35 81.87 47.76Q81.7 47.85 81.54 47.95Q80.98 48.35 80.61 49.03Q80.15 49.9 80.15 51.29Q80.15 52.62 80.59 53.47Q80.92 54.1 81.43 54.49Q81.61 54.62 81.81 54.73ZM107.43 54.07Q108.33 53.05 108.33 51.23Q108.33 49.98 107.89 49.12Q107.58 48.5 107.08 48.1Q106.89 47.94 106.67 47.81Q106.63 47.78 106.58 47.76Q105.84 47.35 104.87 47.35Q103.69 47.35 102.87 47.9Q102.57 48.09 102.33 48.36Q102.32 48.37 102.31 48.38Q101.39 49.38 101.39 51.23Q101.39 52.48 101.84 53.35Q102.18 54.03 102.73 54.46Q102.89 54.58 103.06 54.68Q103.18 54.75 103.3 54.81Q103.99 55.14 104.83 55.14Q105.99 55.14 106.81 54.6Q107.12 54.4 107.39 54.11Q107.41 54.09 107.43 54.07ZM127.66 54.07Q128.56 53.05 128.56 51.23Q128.56 49.98 128.12 49.12Q127.81 48.5 127.31 48.1Q127.12 47.94 126.9 47.81Q126.86 47.78 126.81 47.76Q126.07 47.35 125.1 47.35Q123.92 47.35 123.1 47.9Q122.8 48.09 122.56 48.36Q122.55 48.37 122.54 48.38Q121.62 49.38 121.62 51.23Q121.62 52.48 122.07 53.35Q122.41 54.03 122.96 54.46Q123.12 54.58 123.29 54.68Q123.41 54.75 123.53 54.81Q124.22 55.14 125.06 55.14Q126.22 55.14 127.04 54.6Q127.35 54.4 127.62 54.11Q127.64 54.09 127.66 54.07ZM131.75 54.73Q132.53 55.14 133.52 55.14Q134.16 55.14 134.62 55.03Q135.07 54.93 135.45 54.73L135.45 53.64Q135.06 53.82 134.59 53.95Q134.12 54.07 133.51 54.07Q132.75 54.07 132.27 53.71Q132.06 53.56 131.9 53.35Q131.36 52.63 131.36 51.27Q131.36 49.5 132.22 48.83Q132.74 48.43 133.57 48.43Q133.97 48.43 134.42 48.54Q134.86 48.65 135.2 48.78L135.58 47.76Q135.24 47.59 134.71 47.47Q134.18 47.35 133.6 47.35Q132.59 47.35 131.8 47.76Q131.64 47.85 131.48 47.95Q130.92 48.35 130.55 49.03Q130.09 49.9 130.09 51.29Q130.09 52.62 130.53 53.47Q130.86 54.1 131.37 54.49Q131.55 54.62 131.75 54.73ZM171.49 47.77Q170.8 47.35 169.84 47.35Q168.98 47.35 168.31 47.7Q168.2 47.76 168.09 47.83Q167.94 47.93 167.8 48.04Q167.26 48.49 166.93 49.18Q166.52 50.07 166.52 51.3Q166.52 52.54 166.97 53.41Q167.27 53.97 167.72 54.35Q167.96 54.55 168.25 54.7Q169.07 55.14 170.13 55.14Q170.9 55.14 171.46 55.02Q172.02 54.9 172.59 54.65L172.59 53.57Q172.01 53.82 171.45 53.95Q170.9 54.09 170.18 54.09Q169.28 54.09 168.7 53.65Q168.56 53.55 168.44 53.42Q167.82 52.76 167.79 51.48L172.93 51.48L172.93 50.74Q172.93 49.72 172.56 48.96Q172.32 48.46 171.94 48.11Q171.74 47.92 171.49 47.77ZM210.16 47.77Q209.47 47.35 208.5 47.35Q207.65 47.35 206.98 47.7Q206.87 47.76 206.76 47.83Q206.61 47.93 206.46 48.04Q205.93 48.49 205.6 49.18Q205.18 50.07 205.18 51.3Q205.18 52.54 205.64 53.41Q205.94 53.97 206.39 54.35Q206.63 54.55 206.91 54.7Q207.73 55.14 208.8 55.14Q209.57 55.14 210.13 55.02Q210.69 54.9 211.26 54.65L211.26 53.57Q210.67 53.82 210.12 53.95Q209.57 54.09 208.85 54.09Q207.95 54.09 207.37 53.65Q207.23 53.55 207.11 53.42Q206.49 52.76 206.46 51.48L211.6 51.48L211.6 50.74Q211.6 49.72 211.22 48.96Q210.98 48.46 210.61 48.11Q210.41 47.92 210.16 47.77ZM214.74 54.73Q215.52 55.14 216.51 55.14Q217.15 55.14 217.61 55.03Q218.06 54.93 218.44 54.73L218.44 53.64Q218.05 53.82 217.58 53.95Q217.11 54.07 216.5 54.07Q215.75 54.07 215.26 53.71Q215.05 53.56 214.89 53.35Q214.36 52.63 214.36 51.27Q214.36 49.5 215.21 48.83Q215.73 48.43 216.57 48.43Q216.96 48.43 217.41 48.54Q217.86 48.65 218.19 48.78L218.57 47.76Q218.23 47.59 217.7 47.47Q217.17 47.35 216.59 47.35Q215.59 47.35 214.8 47.76Q214.63 47.85 214.47 47.95Q213.91 48.35 213.54 49.03Q213.08 49.9 213.08 51.29Q213.08 52.62 213.52 53.47Q213.85 54.1 214.36 54.49Q214.54 54.62 214.74 54.73ZM239.51 47.77Q238.81 47.35 237.85 47.35Q237 47.35 236.33 47.7Q236.21 47.76 236.1 47.83Q235.95 47.93 235.81 48.04Q235.27 48.49 234.94 49.18Q234.53 50.07 234.53 51.3Q234.53 52.54 234.98 53.41Q235.28 53.97 235.74 54.35Q235.98 54.55 236.26 54.7Q237.08 55.14 238.14 55.14Q238.91 55.14 239.47 55.02Q240.03 54.9 240.61 54.65L240.61 53.57Q240.02 53.82 239.46 53.95Q238.91 54.09 238.2 54.09Q237.29 54.09 236.71 53.65Q236.57 53.55 236.45 53.42Q235.83 52.76 235.8 51.48L240.94 51.48L240.94 50.74Q240.94 49.72 240.57 48.96Q240.33 48.46 239.95 48.11Q239.75 47.92 239.51 47.77ZM252.09 54.07Q253 53.05 253 51.23Q253 49.98 252.55 49.12Q252.24 48.5 251.75 48.1Q251.55 47.94 251.33 47.81Q251.29 47.78 251.24 47.76Q250.5 47.35 249.54 47.35Q248.35 47.35 247.53 47.9Q247.24 48.09 246.99 48.36Q246.98 48.37 246.97 48.38Q246.05 49.38 246.05 51.23Q246.05 52.48 246.5 53.35Q246.85 54.03 247.39 54.46Q247.55 54.58 247.72 54.68Q247.84 54.75 247.97 54.81Q248.65 55.14 249.5 55.14Q250.66 55.14 251.47 54.6Q251.79 54.4 252.05 54.11Q252.07 54.09 252.09 54.07ZM264.56 54.73Q265.34 55.14 266.34 55.14Q266.98 55.14 267.44 55.03Q267.89 54.93 268.27 54.73L268.27 53.64Q267.88 53.82 267.41 53.95Q266.94 54.07 266.32 54.07Q265.57 54.07 265.08 53.71Q264.88 53.56 264.72 53.35Q264.18 52.63 264.18 51.27Q264.18 49.5 265.04 48.83Q265.56 48.43 266.39 48.43Q266.79 48.43 267.23 48.54Q267.68 48.65 268.02 48.78L268.4 47.76Q268.06 47.59 267.53 47.47Q266.99 47.35 266.42 47.35Q265.41 47.35 264.62 47.76Q264.45 47.85 264.3 47.95Q263.73 48.35 263.37 49.03Q262.91 49.9 262.91 51.29Q262.91 52.62 263.35 53.47Q263.68 54.1 264.19 54.49Q264.37 54.62 264.56 54.73ZM374.84 54.07Q375.75 53.05 375.75 51.23Q375.75 49.98 375.31 49.12Q374.99 48.5 374.5 48.1Q374.31 47.94 374.09 47.81Q374.04 47.78 373.99 47.76Q373.25 47.35 372.29 47.35Q371.1 47.35 370.28 47.9Q369.99 48.09 369.74 48.36Q369.73 48.37 369.72 48.38Q368.8 49.38 368.8 51.23Q368.8 52.48 369.25 53.35Q369.6 54.03 370.14 54.46Q370.3 54.58 370.47 54.68Q370.59 54.75 370.72 54.81Q371.41 55.14 372.25 55.14Q373.41 55.14 374.22 54.6Q374.54 54.4 374.8 54.11Q374.82 54.09 374.84 54.07ZM398.67 47.71Q398.02 47.35 397.18 47.35Q396.27 47.35 395.72 47.69Q395.24 47.99 394.92 48.41Q394.88 48.46 394.84 48.51L394.79 48.51L394.62 47.49L393.61 47.49L393.61 58.35L394.84 58.35L394.84 55.28Q394.84 55.01 394.81 54.65Q394.79 54.28 394.76 54.04L394.84 54.04Q395.17 54.48 395.73 54.81Q396.3 55.14 397.17 55.14Q398 55.14 398.64 54.78Q399.07 54.54 399.41 54.14Q400.26 53.15 400.26 51.23Q400.26 49.28 399.41 48.32Q399.08 47.94 398.67 47.71ZM148.76 47.97Q148.11 47.37 146.74 47.37Q146.01 47.37 145.34 47.55Q144.66 47.74 144.17 48.01L144.55 48.93Q145.01 48.71 145.54 48.54Q145.58 48.52 145.62 48.51Q146.12 48.36 146.66 48.36Q147.41 48.36 147.81 48.72Q148.22 49.09 148.22 50.03L148.22 50.47L146.95 50.51Q145.11 50.57 144.23 51.18Q143.83 51.45 143.62 51.83Q143.35 52.29 143.35 52.91Q143.35 53.88 143.83 54.42Q143.92 54.52 144.02 54.6Q144.11 54.67 144.2 54.73Q144.83 55.14 145.71 55.14Q146.66 55.14 147.2 54.84Q147.75 54.55 148.23 53.93L148.29 53.93L148.53 55L149.42 55L149.42 49.89Q149.42 48.58 148.77 47.97Q148.77 47.97 148.76 47.97ZM194.04 47.97Q193.38 47.37 192.01 47.37Q191.28 47.37 190.61 47.55Q189.94 47.74 189.45 48.01L189.83 48.93Q190.29 48.71 190.82 48.54Q190.86 48.52 190.9 48.51Q191.39 48.36 191.94 48.36Q192.68 48.36 193.09 48.72Q193.5 49.09 193.5 50.03L193.5 50.47L192.22 50.51Q190.39 50.57 189.5 51.18Q189.11 51.45 188.89 51.83Q188.62 52.29 188.62 52.91Q188.62 53.88 189.11 54.42Q189.19 54.52 189.3 54.6Q189.38 54.67 189.48 54.73Q190.1 55.14 190.99 55.14Q191.94 55.14 192.48 54.84Q193.02 54.55 193.51 53.93L193.56 53.93L193.8 55L194.7 55L194.7 49.89Q194.7 48.58 194.05 47.97L194.04 47.97ZM317.72 47.97Q317.06 47.37 315.69 47.37Q314.96 47.37 314.29 47.55Q313.61 47.74 313.13 48.01L313.5 48.93Q313.97 48.71 314.5 48.54Q314.53 48.52 314.57 48.51Q315.07 48.36 315.62 48.36Q316.36 48.36 316.76 48.72Q317.17 49.09 317.17 50.03L317.17 50.47L315.9 50.51Q314.07 50.57 313.18 51.18Q312.79 51.45 312.57 51.83Q312.3 52.29 312.3 52.91Q312.3 53.88 312.78 54.42Q312.87 54.52 312.97 54.6Q313.06 54.67 313.15 54.73Q313.78 55.14 314.67 55.14Q315.62 55.14 316.16 54.84Q316.7 54.55 317.19 53.93L317.24 53.93L317.48 55L318.38 55L318.38 49.89Q318.38 48.58 317.72 47.97L317.72 47.97ZM390.63 47.97Q389.97 47.37 388.6 47.37Q387.87 47.37 387.2 47.55Q386.53 47.74 386.04 48.01L386.42 48.93Q386.88 48.71 387.41 48.54Q387.45 48.52 387.48 48.51Q387.98 48.36 388.53 48.36Q389.27 48.36 389.68 48.72Q390.08 49.09 390.08 50.03L390.08 50.47L388.81 50.51Q386.98 50.57 386.09 51.18Q385.7 51.45 385.48 51.83Q385.21 52.29 385.21 52.91Q385.21 53.88 385.69 54.42Q385.78 54.52 385.88 54.6Q385.97 54.67 386.06 54.73Q386.69 55.14 387.58 55.14Q388.53 55.14 389.07 54.84Q389.61 54.55 390.1 53.93L390.15 53.93L390.39 55L391.29 55L391.29 49.89Q391.29 48.58 390.64 47.97L390.63 47.97ZM407.09 47.97Q406.44 47.37 405.06 47.37Q404.34 47.37 403.66 47.55Q402.99 47.74 402.5 48.01L402.88 48.93Q403.34 48.71 403.87 48.54Q403.91 48.52 403.95 48.51Q404.45 48.36 404.99 48.36Q405.73 48.36 406.14 48.72Q406.55 49.09 406.55 50.03L406.55 50.47L405.27 50.51Q403.44 50.57 402.56 51.18Q402.16 51.45 401.94 51.83Q401.67 52.29 401.67 52.91Q401.67 53.88 402.16 54.42Q402.25 54.52 402.35 54.6Q402.43 54.67 402.53 54.73Q403.15 55.14 404.04 55.14Q404.99 55.14 405.53 54.84Q406.07 54.55 406.56 53.93L406.62 53.93L406.86 55L407.75 55L407.75 49.89Q407.75 48.58 407.1 47.97L407.09 47.97ZM61.1 55L61.1 47.49L54.75 47.49L54.75 55L55.99 55L55.99 48.54L59.86 48.54L59.86 55L61.1 55ZM87.29 47.49L87.29 55L90.41 55Q91.95 55 92.64 54.37Q92.86 54.17 93.01 53.93Q93.33 53.41 93.33 52.7Q93.33 51.92 92.95 51.43Q92.81 51.25 92.63 51.11Q91.93 50.57 90.47 50.57L88.52 50.57L88.52 47.49L87.29 47.49ZM94.57 47.49L94.57 55L95.8 55L95.8 47.49L94.57 47.49ZM119.48 53.96L119.48 47.49L115.53 47.49Q115.53 47.86 115.5 48.23Q115.41 49.59 115.03 50.93Q114.55 52.63 113.58 53.96L112.98 53.96L112.98 57.6L114.16 57.6L114.16 55L119.38 55L119.38 57.6L120.57 57.6L120.57 53.96L119.48 53.96ZM139.96 48.53L142.41 48.53L142.41 47.49L136.32 47.49L136.32 48.53L138.74 48.53L138.74 55L139.96 55L139.96 48.53ZM157.52 50.29Q157.78 49.93 157.78 49.38Q157.78 48.71 157.46 48.31Q157.43 48.28 157.41 48.25L157.41 48.25Q157.03 47.84 156.4 47.67Q155.77 47.49 154.97 47.49L151.75 47.49L151.75 55L154.98 55Q156.6 55 157.31 54.37Q157.66 54.07 157.84 53.68Q158.02 53.28 158.02 52.8Q158.02 52.13 157.69 51.74Q157.6 51.64 157.5 51.56Q157.39 51.48 157.28 51.41Q156.84 51.14 156.28 51.06L156.28 51.01Q156.94 50.87 157.36 50.47Q157.45 50.39 157.52 50.29ZM165.59 47.49L164.25 47.49L161.04 51.13L161.04 47.49L159.81 47.49L159.81 55L161.04 55L161.04 51.19L164.43 55L165.86 55L162.39 51.1L165.59 47.49ZM187.55 47.49L186.2 47.49L183 51.13L183 47.49L181.76 47.49L181.76 55L183 55L183 51.19L186.38 55L187.81 55L184.34 51.1L187.55 47.49ZM198.39 51.11Q198.1 50.79 198.1 50.22L198.1 47.49L196.87 47.49L196.87 50.31Q196.87 51.03 197.2 51.55Q197.33 51.75 197.5 51.92Q197.54 51.95 197.58 51.98Q198.21 52.52 199.29 52.52Q200.15 52.52 200.76 52.29Q201.36 52.06 201.99 51.65L201.99 55L203.23 55L203.23 47.49L201.99 47.49L201.99 50.71Q201.39 51.07 200.82 51.29Q200.24 51.51 199.54 51.51Q198.74 51.51 198.39 51.11ZM222.95 48.53L225.4 48.53L225.4 47.49L219.31 47.49L219.31 48.53L221.74 48.53L221.74 55L222.95 55L222.95 48.53ZM232.66 50.29Q232.92 49.93 232.92 49.38Q232.92 48.71 232.59 48.31Q232.57 48.28 232.55 48.25L232.54 48.25Q232.17 47.84 231.54 47.67Q230.9 47.49 230.1 47.49L226.88 47.49L226.88 55L230.12 55Q231.74 55 232.45 54.37Q232.8 54.07 232.97 53.68Q233.16 53.28 233.16 52.8Q233.16 52.13 232.82 51.74Q232.74 51.64 232.64 51.56Q232.53 51.48 232.42 51.41Q231.98 51.14 231.42 51.06L231.42 51.01Q232.08 50.87 232.5 50.47Q232.59 50.39 232.66 50.29ZM274.51 55L275.76 55L275.76 47.49L271.24 47.49Q271 50.91 270.54 52.52Q270.13 53.99 269.46 54.12Q269.4 54.13 269.33 54.13Q269.24 54.13 269.14 54.11Q269.04 54.1 268.96 54.07L268.96 55Q269.07 55.05 269.24 55.07Q269.42 55.09 269.6 55.09Q269.97 55.09 270.28 54.96Q270.65 54.8 270.94 54.44Q271.48 53.78 271.8 52.33Q272.12 50.88 272.3 48.51L274.51 48.51L274.51 55ZM278.28 47.49L276.96 47.49L279.99 55.02L279.6 56.02Q279.37 56.62 278.97 56.98Q278.9 57.05 278.81 57.11Q278.45 57.35 277.93 57.35Q277.69 57.35 277.47 57.32Q277.26 57.29 277.1 57.26L277.1 58.24Q277.28 58.29 277.54 58.32Q277.79 58.35 278.13 58.35Q279.03 58.35 279.61 57.92Q279.73 57.83 279.84 57.72Q280.46 57.09 280.86 56.03L284.09 47.49L282.76 47.49L281.23 51.75Q281.04 52.32 280.86 52.89Q280.68 53.45 280.59 53.81L280.53 53.81Q280.45 53.34 280.28 52.83Q280.11 52.32 279.9 51.76L278.28 47.49ZM291.19 51.13L294.28 47.49L292.95 47.49L289.9 51.13L289.9 47.49L288.75 47.49L288.75 51.13L285.71 47.49L284.37 47.49L287.46 51.13L284.1 55L285.5 55L288.75 51.19L288.75 55L289.9 55L289.9 51.19L293.15 55L294.55 55L291.19 51.13ZM296.93 52.58Q296.94 52.24 296.94 52.07L296.94 47.49L295.78 47.49L295.78 55L297.31 55L301.29 48.72Q301.28 48.9 301.27 49.26Q301.25 49.62 301.25 49.98Q301.24 50.35 301.24 50.57L301.24 55L302.39 55L302.39 47.49L300.88 47.49L296.86 53.78Q296.87 53.58 296.89 53.25Q296.91 52.91 296.93 52.58ZM310.56 50.29Q310.82 49.93 310.82 49.38Q310.82 48.71 310.49 48.31Q310.47 48.28 310.44 48.25L310.44 48.25Q310.07 47.84 309.44 47.67Q308.8 47.49 308 47.49L304.78 47.49L304.78 55L308.01 55Q309.64 55 310.35 54.37Q310.69 54.07 310.87 53.68Q311.05 53.28 311.05 52.8Q311.05 52.13 310.72 51.74Q310.64 51.64 310.53 51.56Q310.43 51.48 310.32 51.41Q309.88 51.14 309.32 51.06L309.32 51.01Q309.98 50.87 310.4 50.47Q310.49 50.39 310.56 50.29ZM321.93 50.61L321.93 47.49L320.7 47.49L320.7 55L321.93 55L321.93 51.65L326.01 51.65L326.01 55L327.24 55L327.24 47.49L326.01 47.49L326.01 50.61L321.93 50.61ZM330.77 52.58Q330.78 52.24 330.78 52.07L330.78 47.49L329.62 47.49L329.62 55L331.14 55L335.13 48.72Q335.12 48.9 335.11 49.26Q335.09 49.62 335.09 49.98Q335.08 50.35 335.08 50.57L335.08 55L336.22 55L336.22 47.49L334.71 47.49L330.7 53.78Q330.71 53.58 330.73 53.25Q330.75 52.91 330.77 52.58ZM337.66 55L339.08 55L341.02 52.01L342.83 52.01L342.83 55L344.07 55L344.07 47.49L340.7 47.49Q339.5 47.49 338.77 48.06Q338.55 48.23 338.4 48.44Q338.04 48.95 338.04 49.7Q338.04 50.36 338.3 50.8Q338.5 51.15 338.79 51.38Q338.87 51.44 338.95 51.49Q339.36 51.73 339.79 51.84L337.66 55ZM351.22 52.58Q351.23 52.24 351.23 52.07L351.23 47.49L350.07 47.49L350.07 55L351.6 55L355.59 48.72Q355.57 48.9 355.56 49.26Q355.55 49.62 355.54 49.98Q355.53 50.35 355.53 50.57L355.53 55L356.68 55L356.68 47.49L355.17 47.49L351.15 53.78Q351.16 53.58 351.19 53.25Q351.21 52.91 351.22 52.58ZM365.43 48.53L367.88 48.53L367.88 47.49L361.79 47.49L361.79 48.53L364.21 48.53L364.21 55L365.43 55L365.43 48.53ZM383.47 50.29Q383.73 49.93 383.73 49.38Q383.73 48.71 383.4 48.31Q383.38 48.28 383.36 48.25L383.35 48.25Q382.98 47.84 382.35 47.67Q381.71 47.49 380.91 47.49L377.69 47.49L377.69 55L380.93 55Q382.55 55 383.26 54.37Q383.6 54.07 383.78 53.68Q383.96 53.28 383.96 52.8Q383.96 52.13 383.63 51.74Q383.55 51.64 383.45 51.56Q383.34 51.48 383.23 51.41Q382.79 51.14 382.23 51.06L382.23 51.01Q382.89 50.87 383.31 50.47Q383.4 50.39 383.47 50.29ZM168.76 48.64Q169.2 48.36 169.82 48.36Q170.54 48.36 170.97 48.71Q171.09 48.82 171.19 48.96Q171.63 49.55 171.64 50.5L167.82 50.5Q167.92 49.49 168.43 48.92Q168.58 48.76 168.76 48.64ZM207.42 48.64Q207.86 48.36 208.49 48.36Q209.21 48.36 209.64 48.71Q209.76 48.82 209.86 48.96Q210.29 49.55 210.31 50.5L206.49 50.5Q206.59 49.49 207.1 48.92Q207.24 48.76 207.42 48.64ZM236.77 48.64Q237.21 48.36 237.83 48.36Q238.56 48.36 238.98 48.71Q239.1 48.82 239.2 48.96Q239.64 49.55 239.65 50.5L235.83 50.5Q235.93 49.49 236.44 48.92Q236.59 48.76 236.77 48.64ZM47.66 53.34Q47.14 52.56 47.14 51.23Q47.14 49.9 47.66 49.14Q47.79 48.95 47.96 48.81Q48.46 48.39 49.32 48.39Q50.18 48.39 50.69 48.81Q50.87 48.95 51 49.14Q51.53 49.9 51.53 51.23Q51.53 52.56 51 53.34Q50.85 53.56 50.64 53.72Q50.14 54.11 49.34 54.11Q48.51 54.11 48 53.71Q47.81 53.55 47.66 53.34ZM65.33 48.9Q65.82 48.39 66.84 48.39Q67.49 48.39 67.93 48.7Q68.19 48.88 68.37 49.16Q68.87 49.93 68.87 51.21Q68.87 52.06 68.65 52.71Q68.43 53.36 67.99 53.74Q67.92 53.8 67.84 53.85Q67.44 54.11 66.86 54.11Q65.85 54.11 65.37 53.61Q65.26 53.5 65.18 53.36Q64.72 52.62 64.72 51.23L64.72 50.99Q64.75 49.68 65.22 49.03Q65.27 48.96 65.33 48.9ZM73.48 53.34Q72.95 52.56 72.95 51.23Q72.95 49.9 73.47 49.14Q73.6 48.95 73.77 48.81Q74.28 48.39 75.14 48.39Q75.99 48.39 76.51 48.81Q76.68 48.95 76.82 49.14Q77.35 49.9 77.35 51.23Q77.35 52.56 76.82 53.34Q76.66 53.56 76.46 53.72Q75.96 54.11 75.15 54.11Q74.32 54.11 73.82 53.71Q73.62 53.55 73.48 53.34ZM103.19 53.34Q102.66 52.56 102.66 51.23Q102.66 49.9 103.18 49.14Q103.31 48.95 103.48 48.81Q103.99 48.39 104.85 48.39Q105.7 48.39 106.22 48.81Q106.39 48.95 106.53 49.14Q107.06 49.9 107.06 51.23Q107.06 52.56 106.53 53.34Q106.37 53.56 106.17 53.72Q105.67 54.11 104.86 54.11Q104.03 54.11 103.53 53.71Q103.33 53.55 103.19 53.34ZM123.42 53.34Q122.89 52.56 122.89 51.23Q122.89 49.9 123.41 49.14Q123.54 48.95 123.71 48.81Q124.22 48.39 125.08 48.39Q125.93 48.39 126.45 48.81Q126.62 48.95 126.76 49.14Q127.29 49.9 127.29 51.23Q127.29 52.56 126.76 53.34Q126.6 53.56 126.4 53.72Q125.9 54.11 125.09 54.11Q124.26 54.11 123.76 53.71Q123.56 53.55 123.42 53.34ZM247.85 53.34Q247.33 52.56 247.33 51.23Q247.33 49.9 247.84 49.14Q247.97 48.95 248.14 48.81Q248.65 48.39 249.51 48.39Q250.37 48.39 250.88 48.81Q251.05 48.95 251.19 49.14Q251.72 49.9 251.72 51.23Q251.72 52.56 251.19 53.34Q251.03 53.56 250.83 53.72Q250.33 54.11 249.52 54.11Q248.69 54.11 248.19 53.71Q247.99 53.55 247.85 53.34ZM370.6 53.34Q370.08 52.56 370.08 51.23Q370.08 49.9 370.59 49.14Q370.72 48.95 370.9 48.81Q371.4 48.39 372.26 48.39Q373.12 48.39 373.63 48.81Q373.8 48.95 373.94 49.14Q374.47 49.9 374.47 51.23Q374.47 52.56 373.94 53.34Q373.79 53.56 373.58 53.72Q373.08 54.11 372.28 54.11Q371.45 54.11 370.94 53.71Q370.75 53.55 370.6 53.34ZM395.45 48.9Q395.94 48.39 396.96 48.39Q397.61 48.39 398.05 48.7Q398.31 48.88 398.49 49.16Q398.99 49.93 398.99 51.21Q398.99 52.06 398.77 52.71Q398.55 53.36 398.11 53.74Q398.04 53.8 397.96 53.85Q397.56 54.11 396.98 54.11Q395.97 54.11 395.49 53.61Q395.38 53.5 395.3 53.36Q394.84 52.62 394.84 51.23L394.84 50.99Q394.87 49.68 395.34 49.03Q395.39 48.96 395.45 48.9ZM116.32 50.43Q116.56 49.41 116.62 48.46L118.29 48.46L118.29 53.96L114.86 53.96Q115.35 53.29 115.72 52.36Q116.09 51.44 116.32 50.43ZM156.37 48.96Q156.53 49.18 156.53 49.54Q156.53 49.78 156.43 49.97Q156.1 50.57 154.67 50.57L152.98 50.57L152.98 48.51L154.9 48.51Q155.77 48.51 156.15 48.76Q156.28 48.84 156.37 48.96ZM231.5 48.96Q231.67 49.18 231.67 49.54Q231.67 49.78 231.57 49.97Q231.23 50.57 229.81 50.57L228.12 50.57L228.12 48.51L230.04 48.51Q230.9 48.51 231.29 48.76Q231.42 48.84 231.5 48.96ZM309.4 48.96Q309.57 49.18 309.57 49.54Q309.57 49.78 309.47 49.97Q309.13 50.57 307.71 50.57L306.01 50.57L306.01 48.51L307.93 48.51Q308.8 48.51 309.18 48.76Q309.31 48.84 309.4 48.96ZM339.42 50.39Q339.23 50.11 339.23 49.72Q339.23 49.4 339.37 49.15Q339.46 48.98 339.6 48.85Q339.98 48.51 340.83 48.51L342.83 48.51L342.83 50.99L341.07 50.99Q340.2 50.99 339.72 50.68Q339.53 50.56 339.42 50.39ZM382.31 48.96Q382.48 49.18 382.48 49.54Q382.48 49.78 382.38 49.97Q382.04 50.57 380.62 50.57L378.93 50.57L378.93 48.51L380.84 48.51Q381.71 48.51 382.1 48.76Q382.23 48.84 382.31 48.96ZM259.13 53.84Q258.68 54.11 258.05 54.11Q257.38 54.11 256.94 53.81Q256.81 53.73 256.7 53.62Q256.43 53.37 256.25 53Q256 52.49 255.9 51.85Q255.81 51.2 255.81 50.51Q255.95 50.28 256.28 49.93Q256.62 49.58 257.13 49.3Q257.24 49.24 257.36 49.2Q257.77 49.03 258.25 49.03Q258.96 49.03 259.37 49.38Q259.53 49.51 259.65 49.7Q260.08 50.36 260.08 51.51Q260.08 52.94 259.52 53.53Q259.34 53.71 259.13 53.84ZM38.61 53.93L38.61 50.31L40.53 50.31Q41.92 50.31 42.46 50.79Q42.66 50.97 42.79 51.19Q43 51.57 43 52.06Q43 52.66 42.72 53.1Q42.62 53.27 42.48 53.42Q41.96 53.93 40.63 53.93L38.61 53.93ZM145.16 51.82Q145.7 51.43 147.1 51.37L148.21 51.33L148.21 52Q148.21 52.94 147.74 53.46Q147.66 53.54 147.57 53.62Q147.45 53.72 147.32 53.8Q146.77 54.14 146 54.14Q145.4 54.14 145.01 53.85Q145.01 53.85 145 53.85Q144.93 53.79 144.87 53.73Q144.62 53.44 144.62 52.92Q144.62 52.51 144.81 52.2Q144.94 51.98 145.16 51.82ZM190.44 51.82Q190.98 51.43 192.38 51.37L193.48 51.33L193.48 52Q193.48 52.94 193.01 53.46Q192.94 53.54 192.85 53.62Q192.73 53.72 192.6 53.8Q192.04 54.14 191.27 54.14Q190.67 54.14 190.29 53.85Q190.29 53.85 190.28 53.85Q190.21 53.79 190.15 53.73Q189.9 53.44 189.9 52.92Q189.9 52.51 190.08 52.2Q190.21 51.98 190.44 51.82ZM314.11 51.82Q314.65 51.43 316.05 51.37L317.16 51.33L317.16 52Q317.16 52.94 316.69 53.46Q316.61 53.54 316.53 53.62Q316.41 53.72 316.28 53.8Q315.72 54.14 314.95 54.14Q314.35 54.14 313.97 53.85L313.96 53.85Q313.88 53.79 313.83 53.73Q313.57 53.44 313.57 52.92Q313.57 52.51 313.76 52.2Q313.89 51.98 314.11 51.82ZM387.03 51.82Q387.57 51.43 388.96 51.37L390.07 51.33L390.07 52Q390.07 52.94 389.6 53.46Q389.53 53.54 389.44 53.62Q389.32 53.72 389.19 53.8Q388.63 54.14 387.86 54.14Q387.26 54.14 386.88 53.85L386.87 53.85Q386.8 53.79 386.74 53.73Q386.49 53.44 386.49 52.92Q386.49 52.51 386.67 52.2Q386.8 51.98 387.03 51.82ZM403.49 51.82Q404.03 51.43 405.43 51.37L406.53 51.33L406.53 52Q406.53 52.94 406.07 53.46Q405.99 53.54 405.9 53.62Q405.78 53.72 405.65 53.8Q405.09 54.14 404.32 54.14Q403.73 54.14 403.34 53.85L403.33 53.85Q403.26 53.79 403.2 53.73Q402.95 53.44 402.95 52.92Q402.95 52.51 403.13 52.2Q403.26 51.98 403.49 51.82ZM91.6 53.73Q91.1 54 90.3 54L88.52 54L88.52 51.59L90.32 51.59Q91.18 51.59 91.64 51.84Q91.76 51.9 91.85 51.99Q92.11 52.26 92.11 52.77Q92.11 53.22 91.89 53.49Q91.77 53.63 91.6 53.73ZM156.55 52.13Q156.74 52.39 156.74 52.8Q156.74 53.23 156.54 53.49Q156.42 53.63 156.25 53.73Q155.77 54 154.84 54L152.98 54L152.98 51.59L154.81 51.59Q155.77 51.59 156.25 51.87Q156.44 51.98 156.55 52.13ZM231.69 52.13Q231.88 52.39 231.88 52.8Q231.88 53.23 231.67 53.49Q231.56 53.63 231.39 53.73Q230.9 54 229.98 54L228.12 54L228.12 51.59L229.95 51.59Q230.9 51.59 231.39 51.87Q231.57 51.98 231.69 52.13ZM309.58 52.13Q309.78 52.39 309.78 52.8Q309.78 53.23 309.57 53.49Q309.46 53.63 309.29 53.73Q308.8 54 307.87 54L306.01 54L306.01 51.59L307.85 51.59Q308.8 51.59 309.29 51.87Q309.47 51.98 309.58 52.13ZM382.5 52.13Q382.69 52.39 382.69 52.8Q382.69 53.23 382.48 53.49Q382.37 53.63 382.2 53.73Q381.71 54 380.79 54L378.93 54L378.93 51.59L380.76 51.59Q381.71 51.59 382.2 51.87Q382.38 51.98 382.5 52.13ZM175.97 54.37C175.98 54.46 175.99 54.54 175.98 54.57C175.97 54.67 175.94 54.79 175.9 54.91L175.48 56.23L174.79 56.23L175.1 55.14C174.82 55.04 174.61 54.84 174.61 54.52C174.61 54.13 174.9 53.87 175.29 53.87C175.62 53.87 175.87 54.06 175.97 54.35L175.97 54.37ZM78.39 66.64Q77.64 68.02 77.64 70.49Q77.64 72.76 78.57 73.95Q78.99 74.49 79.55 74.79Q80.21 75.14 81.05 75.14Q82.07 75.14 82.84 74.72Q83.06 74.6 83.25 74.45Q83.73 74.07 84.04 73.47Q84.48 72.63 84.48 71.38Q84.48 69.93 83.78 69Q83.76 68.98 83.73 68.95Q83.55 68.71 83.31 68.53Q82.62 68.01 81.54 68.01Q80.92 68.01 80.44 68.21Q79.95 68.4 79.61 68.68Q79.27 68.96 79.07 69.23L78.99 69.23Q79.06 67.65 79.59 66.9Q79.84 66.54 80.18 66.31Q80.56 66.05 81.03 65.95Q81.47 65.85 82.07 65.75Q82.67 65.64 83.29 65.54Q83.9 65.43 84.39 65.36L84.18 64.29Q83.43 64.41 82.56 64.57Q81.69 64.72 80.78 64.92Q79.79 65.13 79.12 65.71Q78.68 66.1 78.39 66.64ZM50.98 67.71Q50.33 67.35 49.49 67.35Q48.58 67.35 48.03 67.69Q47.55 67.99 47.23 68.41Q47.19 68.46 47.15 68.51L47.1 68.51L46.93 67.49L45.92 67.49L45.92 78.35L47.15 78.35L47.15 75.28Q47.15 75.01 47.12 74.65Q47.1 74.28 47.07 74.04L47.15 74.04Q47.48 74.48 48.04 74.81Q48.61 75.14 49.48 75.14Q50.31 75.14 50.95 74.78Q51.38 74.54 51.72 74.14Q52.57 73.15 52.57 71.23Q52.57 69.28 51.72 68.32Q51.39 67.94 50.98 67.71ZM60.15 74.07Q61.06 73.05 61.06 71.23Q61.06 69.98 60.61 69.12Q60.3 68.5 59.81 68.1Q59.61 67.94 59.39 67.81Q59.35 67.78 59.3 67.76Q58.56 67.35 57.6 67.35Q56.41 67.35 55.59 67.9Q55.29 68.09 55.05 68.36Q55.04 68.37 55.03 68.38Q54.11 69.38 54.11 71.23Q54.11 72.48 54.56 73.35Q54.91 74.03 55.45 74.46Q55.61 74.58 55.78 74.68Q55.9 74.75 56.03 74.81Q56.71 75.14 57.56 75.14Q58.72 75.14 59.53 74.6Q59.85 74.4 60.11 74.11Q60.13 74.09 60.15 74.07ZM64.24 74.73Q65.02 75.14 66.01 75.14Q66.65 75.14 67.11 75.03Q67.56 74.93 67.94 74.73L67.94 73.64Q67.55 73.82 67.08 73.95Q66.61 74.07 66 74.07Q65.25 74.07 64.76 73.71Q64.55 73.56 64.39 73.35Q63.85 72.63 63.85 71.27Q63.85 69.5 64.71 68.83Q65.23 68.43 66.07 68.43Q66.46 68.43 66.91 68.54Q67.35 68.65 67.69 68.78L68.07 67.76Q67.73 67.59 67.2 67.47Q66.67 67.35 66.09 67.35Q65.09 67.35 64.3 67.76Q64.13 67.85 63.97 67.95Q63.41 68.35 63.04 69.03Q62.58 69.9 62.58 71.29Q62.58 72.62 63.02 73.47Q63.35 74.1 63.86 74.49Q64.04 74.62 64.24 74.73ZM101.93 67.87Q101.17 67.35 99.88 67.35Q98.44 67.35 97.26 67.87L97.69 68.85Q98.25 68.61 98.72 68.49Q99.19 68.37 99.81 68.37Q100.63 68.37 101.07 68.64Q101.28 68.76 101.39 68.94Q101.52 69.15 101.52 69.44Q101.52 69.75 101.38 69.97Q101.23 70.19 100.93 70.33Q100.35 70.59 99.39 70.59L98.58 70.59L98.58 71.59L99.58 71.59Q101.17 71.59 101.58 72.29Q101.72 72.53 101.72 72.85Q101.72 73.25 101.54 73.52Q101.39 73.72 101.14 73.84Q100.56 74.13 99.72 74.13Q98.95 74.13 98.3 73.95Q97.65 73.76 97.17 73.54L97.17 74.65Q97.61 74.87 98.26 75Q98.92 75.14 99.74 75.14Q101.39 75.14 102.17 74.5Q102.63 74.12 102.82 73.63Q102.94 73.3 102.94 72.92Q102.94 72.35 102.71 71.99Q102.62 71.83 102.49 71.71Q102.32 71.53 102.1 71.4Q101.72 71.17 101.28 71.05L101.28 70.99Q101.94 70.81 102.31 70.41Q102.36 70.36 102.4 70.3Q102.69 69.92 102.69 69.32Q102.69 68.81 102.47 68.43Q102.28 68.1 101.93 67.87ZM180.44 74.07Q181.34 73.05 181.34 71.23Q181.34 69.98 180.9 69.12Q180.59 68.5 180.09 68.1Q179.9 67.94 179.68 67.81Q179.64 67.78 179.59 67.76Q178.85 67.35 177.88 67.35Q176.7 67.35 175.88 67.9Q175.58 68.09 175.34 68.36Q175.33 68.37 175.32 68.38Q174.4 69.38 174.4 71.23Q174.4 72.48 174.85 73.35Q175.19 74.03 175.74 74.46Q175.9 74.58 176.07 74.68Q176.19 74.75 176.31 74.81Q177 75.14 177.84 75.14Q179 75.14 179.82 74.6Q180.13 74.4 180.4 74.11Q180.42 74.09 180.44 74.07ZM202.08 67.77Q201.39 67.35 200.43 67.35Q199.57 67.35 198.9 67.7Q198.79 67.76 198.68 67.83Q198.53 67.93 198.39 68.04Q197.85 68.49 197.52 69.18Q197.11 70.07 197.11 71.3Q197.11 72.54 197.56 73.41Q197.86 73.97 198.31 74.35Q198.55 74.55 198.84 74.7Q199.66 75.14 200.72 75.14Q201.49 75.14 202.05 75.02Q202.61 74.9 203.18 74.65L203.18 73.57Q202.6 73.82 202.04 73.95Q201.49 74.09 200.77 74.09Q199.87 74.09 199.29 73.65Q199.15 73.55 199.03 73.42Q198.41 72.76 198.38 71.48L203.52 71.48L203.52 70.74Q203.52 69.72 203.15 68.96Q202.91 68.46 202.53 68.11Q202.33 67.92 202.08 67.77ZM230.93 67.71Q230.29 67.35 229.45 67.35Q228.54 67.35 227.99 67.69Q227.51 67.99 227.19 68.41Q227.15 68.46 227.11 68.51L227.05 68.51L226.89 67.49L225.88 67.49L225.88 78.35L227.11 78.35L227.11 75.28Q227.11 75.01 227.08 74.65Q227.05 74.28 227.03 74.04L227.11 74.04Q227.43 74.48 228 74.81Q228.57 75.14 229.44 75.14Q230.27 75.14 230.9 74.78Q231.34 74.54 231.68 74.14Q232.53 73.15 232.53 71.23Q232.53 69.28 231.68 68.32Q231.35 67.94 230.93 67.71ZM240.11 74.07Q241.01 73.05 241.01 71.23Q241.01 69.98 240.57 69.12Q240.25 68.5 239.76 68.1Q239.57 67.94 239.35 67.81Q239.31 67.78 239.26 67.76Q238.51 67.35 237.55 67.35Q236.37 67.35 235.55 67.9Q235.25 68.09 235 68.36Q234.99 68.37 234.99 68.38Q234.07 69.38 234.07 71.23Q234.07 72.48 234.51 73.35Q234.86 74.03 235.41 74.46Q235.56 74.58 235.74 74.68Q235.86 74.75 235.98 74.81Q236.67 75.14 237.51 75.14Q238.67 75.14 239.49 74.6Q239.8 74.4 240.07 74.11Q240.09 74.09 240.11 74.07ZM91.29 67.97Q90.64 67.37 89.27 67.37Q88.54 67.37 87.86 67.55Q87.19 67.74 86.7 68.01L87.08 68.93Q87.54 68.71 88.07 68.54Q88.11 68.52 88.15 68.51Q88.65 68.36 89.19 68.36Q89.94 68.36 90.34 68.72Q90.75 69.09 90.75 70.03L90.75 70.47L89.47 70.51Q87.64 70.57 86.76 71.18Q86.36 71.45 86.14 71.83Q85.88 72.29 85.88 72.91Q85.88 73.88 86.36 74.42Q86.45 74.52 86.55 74.6Q86.64 74.67 86.73 74.73Q87.36 75.14 88.24 75.14Q89.19 75.14 89.73 74.84Q90.27 74.55 90.76 73.93L90.82 73.93L91.06 75L91.95 75L91.95 69.89Q91.95 68.58 91.3 67.97Q91.3 67.97 91.29 67.97ZM109.63 67.97Q108.98 67.37 107.61 67.37Q106.88 67.37 106.21 67.55Q105.53 67.74 105.04 68.01L105.42 68.93Q105.88 68.71 106.41 68.54Q106.45 68.52 106.49 68.51Q106.99 68.36 107.53 68.36Q108.28 68.36 108.68 68.72Q109.09 69.09 109.09 70.03L109.09 70.47L107.82 70.51Q105.98 70.57 105.1 71.18Q104.7 71.45 104.49 71.83Q104.22 72.29 104.22 72.91Q104.22 73.88 104.7 74.42Q104.79 74.52 104.89 74.6Q104.98 74.67 105.07 74.73Q105.7 75.14 106.58 75.14Q107.53 75.14 108.07 74.84Q108.62 74.55 109.1 73.93L109.16 73.93L109.4 75L110.29 75L110.29 69.89Q110.29 68.58 109.64 67.97Q109.64 67.97 109.63 67.97ZM125.62 67.97Q124.97 67.37 123.59 67.37Q122.87 67.37 122.19 67.55Q121.52 67.74 121.03 68.01L121.41 68.93Q121.87 68.71 122.4 68.54Q122.44 68.52 122.48 68.51Q122.98 68.36 123.52 68.36Q124.26 68.36 124.67 68.72Q125.08 69.09 125.08 70.03L125.08 70.47L123.8 70.51Q121.97 70.57 121.09 71.18Q120.69 71.45 120.47 71.83Q120.2 72.29 120.2 72.91Q120.2 73.88 120.69 74.42Q120.78 74.52 120.88 74.6Q120.96 74.67 121.06 74.73Q121.68 75.14 122.57 75.14Q123.52 75.14 124.06 74.84Q124.6 74.55 125.09 73.93L125.15 73.93L125.39 75L126.28 75L126.28 69.89Q126.28 68.58 125.63 67.97Q125.63 67.97 125.62 67.97ZM141.54 67.97Q140.88 67.37 139.51 67.37Q138.78 67.37 138.11 67.55Q137.44 67.74 136.95 68.01L137.33 68.93Q137.79 68.71 138.32 68.54Q138.36 68.52 138.39 68.51Q138.89 68.36 139.44 68.36Q140.18 68.36 140.59 68.72Q141 69.09 141 70.03L141 70.47L139.72 70.51Q137.89 70.57 137 71.18Q136.61 71.45 136.39 71.83Q136.12 72.29 136.12 72.91Q136.12 73.88 136.61 74.42Q136.69 74.52 136.8 74.6Q136.88 74.67 136.98 74.73Q137.6 75.14 138.49 75.14Q139.44 75.14 139.98 74.84Q140.52 74.55 141.01 73.93L141.06 73.93L141.3 75L142.2 75L142.2 69.89Q142.2 68.58 141.55 67.97Q141.54 67.97 141.54 67.97ZM255.96 67.97Q255.31 67.37 253.93 67.37Q253.21 67.37 252.53 67.55Q251.86 67.74 251.37 68.01L251.75 68.93Q252.21 68.71 252.74 68.54Q252.78 68.52 252.82 68.51Q253.32 68.36 253.86 68.36Q254.6 68.36 255.01 68.72Q255.42 69.09 255.42 70.03L255.42 70.47L254.14 70.51Q252.31 70.57 251.43 71.18Q251.03 71.45 250.81 71.83Q250.54 72.29 250.54 72.91Q250.54 73.88 251.03 74.42Q251.12 74.52 251.22 74.6Q251.3 74.67 251.4 74.73Q252.02 75.14 252.91 75.14Q253.86 75.14 254.4 74.84Q254.94 74.55 255.43 73.93L255.49 73.93L255.73 75L256.62 75L256.62 69.89Q256.62 68.58 255.97 67.97L255.96 67.97ZM43.53 75L43.53 67.49L37.18 67.49L37.18 75L38.42 75L38.42 68.54L42.29 68.54L42.29 75L43.53 75ZM75.76 71.48Q75.09 70.57 73.18 70.57L70.95 70.57L70.95 67.49L69.72 67.49L69.72 75L73.12 75Q74.68 75 75.39 74.37Q75.64 74.15 75.81 73.87Q76.11 73.37 76.11 72.7Q76.11 71.96 75.76 71.48ZM118.19 73.96L118.19 67.49L114.24 67.49Q114.24 67.86 114.21 68.23Q114.12 69.59 113.74 70.93Q113.26 72.63 112.3 73.96L111.69 73.96L111.69 77.6L112.87 77.6L112.87 75L118.09 75L118.09 77.6L119.28 77.6L119.28 73.96L118.19 73.96ZM134.38 70.29Q134.64 69.93 134.64 69.38Q134.64 68.71 134.31 68.31Q134.29 68.28 134.27 68.25L134.26 68.25Q133.89 67.84 133.26 67.67Q132.62 67.49 131.82 67.49L128.6 67.49L128.6 75L131.84 75Q133.46 75 134.17 74.37Q134.52 74.07 134.69 73.68Q134.88 73.28 134.88 72.8Q134.88 72.13 134.54 71.74Q134.46 71.64 134.36 71.56Q134.25 71.48 134.14 71.41Q133.7 71.14 133.14 71.06L133.14 71.01Q133.8 70.87 134.22 70.47Q134.31 70.39 134.38 70.29ZM147.25 68.53L149.7 68.53L149.7 67.49L143.61 67.49L143.61 68.53L146.04 68.53L146.04 75L147.25 75L147.25 68.53ZM157.22 71.48Q156.56 70.57 154.64 70.57L152.42 70.57L152.42 67.49L151.19 67.49L151.19 75L154.59 75Q156.14 75 156.86 74.37Q157.11 74.15 157.27 73.87Q157.57 73.37 157.57 72.7Q157.57 71.96 157.22 71.48ZM168.9 70.29Q169.17 69.93 169.17 69.38Q169.17 68.71 168.84 68.31Q168.82 68.28 168.79 68.25L168.79 68.25Q168.42 67.84 167.78 67.67Q167.15 67.49 166.35 67.49L163.13 67.49L163.13 75L166.36 75Q167.99 75 168.69 74.37Q169.04 74.07 169.22 73.68Q169.4 73.28 169.4 72.8Q169.4 72.13 169.07 71.74Q168.99 71.64 168.88 71.56Q168.78 71.48 168.67 71.41Q168.22 71.14 167.66 71.06L167.66 71.01Q168.32 70.87 168.74 70.47Q168.83 70.39 168.9 70.29ZM185.88 68.53L188.33 68.53L188.33 67.49L182.24 67.49L182.24 68.53L184.66 68.53L184.66 75L185.88 75L185.88 68.53ZM194.96 73.96L194.96 67.49L191.02 67.49Q191.01 67.86 190.99 68.23Q190.9 69.59 190.52 70.93Q190.04 72.63 189.07 73.96L188.47 73.96L188.47 77.6L189.65 77.6L189.65 75L194.87 75L194.87 77.6L196.06 77.6L196.06 73.96L194.96 73.96ZM209.89 75L211.13 75L211.13 67.49L206.61 67.49Q206.38 70.91 205.92 72.52Q205.5 73.99 204.83 74.12Q204.77 74.13 204.71 74.13Q204.61 74.13 204.51 74.11Q204.41 74.1 204.33 74.07L204.33 75Q204.44 75.05 204.62 75.07Q204.79 75.09 204.98 75.09Q205.34 75.09 205.65 74.96Q206.03 74.8 206.32 74.44Q206.85 73.78 207.17 72.33Q207.49 70.88 207.68 68.51L209.89 68.51L209.89 75ZM223.48 75L223.48 67.49L217.14 67.49L217.14 75L218.37 75L218.37 68.54L222.25 68.54L222.25 75L223.48 75ZM248.53 73.96L248.53 67.49L244.58 67.49Q244.58 67.86 244.55 68.23Q244.46 69.59 244.08 70.93Q243.6 72.63 242.64 73.96L242.03 73.96L242.03 77.6L243.21 77.6L243.21 75L248.43 75L248.43 77.6L249.62 77.6L249.62 73.96L248.53 73.96ZM264.85 71.13L267.95 67.49L266.62 67.49L263.57 71.13L263.57 67.49L262.42 67.49L262.42 71.13L259.38 67.49L258.04 67.49L261.13 71.13L257.77 75L259.17 75L262.42 71.19L262.42 75L263.57 75L263.57 71.19L266.81 75L268.21 75L264.85 71.13ZM199.35 68.64Q199.79 68.36 200.41 68.36Q201.13 68.36 201.56 68.71Q201.68 68.82 201.78 68.96Q202.22 69.55 202.23 70.5L198.41 70.5Q198.51 69.49 199.02 68.92Q199.17 68.76 199.35 68.64ZM47.76 68.9Q48.25 68.39 49.27 68.39Q49.92 68.39 50.36 68.7Q50.62 68.88 50.8 69.16Q51.3 69.93 51.3 71.21Q51.3 72.06 51.08 72.71Q50.86 73.36 50.42 73.74Q50.35 73.8 50.27 73.85Q49.87 74.11 49.29 74.11Q48.28 74.11 47.8 73.61Q47.69 73.5 47.61 73.36Q47.15 72.62 47.15 71.23L47.15 70.99Q47.18 69.68 47.65 69.03Q47.7 68.96 47.76 68.9ZM55.91 73.34Q55.38 72.56 55.38 71.23Q55.38 69.9 55.9 69.14Q56.03 68.95 56.2 68.81Q56.71 68.39 57.57 68.39Q58.42 68.39 58.94 68.81Q59.11 68.95 59.25 69.14Q59.78 69.9 59.78 71.23Q59.78 72.56 59.25 73.34Q59.09 73.56 58.89 73.72Q58.39 74.11 57.58 74.11Q56.75 74.11 56.25 73.71Q56.05 73.55 55.91 73.34ZM176.2 73.34Q175.67 72.56 175.67 71.23Q175.67 69.9 176.19 69.14Q176.32 68.95 176.49 68.81Q177 68.39 177.86 68.39Q178.71 68.39 179.23 68.81Q179.4 68.95 179.54 69.14Q180.07 69.9 180.07 71.23Q180.07 72.56 179.54 73.34Q179.38 73.56 179.18 73.72Q178.68 74.11 177.87 74.11Q177.04 74.11 176.54 73.71Q176.34 73.55 176.2 73.34ZM227.72 68.9Q228.2 68.39 229.22 68.39Q229.88 68.39 230.32 68.7Q230.57 68.88 230.75 69.16Q231.25 69.93 231.25 71.21Q231.25 72.06 231.03 72.71Q230.82 73.36 230.38 73.74Q230.31 73.8 230.23 73.85Q229.83 74.11 229.25 74.11Q228.24 74.11 227.75 73.61Q227.65 73.5 227.57 73.36Q227.11 72.62 227.11 71.23L227.11 70.99Q227.14 69.68 227.61 69.03Q227.66 68.96 227.72 68.9ZM235.86 73.34Q235.34 72.56 235.34 71.23Q235.34 69.9 235.86 69.14Q235.99 68.95 236.16 68.81Q236.67 68.39 237.53 68.39Q238.38 68.39 238.89 68.81Q239.07 68.95 239.2 69.14Q239.74 69.9 239.74 71.23Q239.74 72.56 239.2 73.34Q239.05 73.56 238.84 73.72Q238.34 74.11 237.54 74.11Q236.71 74.11 236.2 73.71Q236.01 73.55 235.86 73.34ZM115.04 70.43Q115.28 69.41 115.33 68.46L117 68.46L117 73.96L113.57 73.96Q114.06 73.29 114.43 72.36Q114.8 71.44 115.04 70.43ZM191.81 70.43Q192.05 69.41 192.11 68.46L193.77 68.46L193.77 73.96L190.35 73.96Q190.84 73.29 191.2 72.36Q191.58 71.44 191.81 70.43ZM245.38 70.43Q245.62 69.41 245.67 68.46L247.34 68.46L247.34 73.96L243.91 73.96Q244.4 73.29 244.77 72.36Q245.14 71.44 245.38 70.43ZM133.22 68.96Q133.39 69.18 133.39 69.54Q133.39 69.78 133.29 69.97Q132.95 70.57 131.53 70.57L129.84 70.57L129.84 68.51L131.76 68.51Q132.62 68.51 133.01 68.76Q133.14 68.84 133.22 68.96ZM167.75 68.96Q167.92 69.18 167.92 69.54Q167.92 69.78 167.81 69.97Q167.48 70.57 166.05 70.57L164.36 70.57L164.36 68.51L166.28 68.51Q167.15 68.51 167.53 68.76Q167.66 68.84 167.75 68.96ZM82.23 73.84Q81.77 74.11 81.14 74.11Q80.47 74.11 80.03 73.81Q79.91 73.73 79.8 73.62Q79.52 73.37 79.35 73Q79.1 72.49 79 71.85Q78.9 71.2 78.9 70.51Q79.04 70.28 79.38 69.93Q79.72 69.58 80.22 69.3Q80.33 69.24 80.45 69.2Q80.86 69.03 81.34 69.03Q82.05 69.03 82.47 69.38Q82.63 69.51 82.75 69.7Q83.17 70.36 83.17 71.51Q83.17 72.94 82.61 73.53Q82.44 73.71 82.23 73.84ZM87.69 71.82Q88.23 71.43 89.63 71.37L90.74 71.33L90.74 72Q90.74 72.94 90.27 73.46Q90.19 73.54 90.1 73.62Q89.98 73.72 89.85 73.8Q89.29 74.14 88.52 74.14Q87.93 74.14 87.54 73.85Q87.54 73.85 87.53 73.85Q87.46 73.79 87.4 73.73Q87.15 73.44 87.15 72.92Q87.15 72.51 87.33 72.2Q87.47 71.98 87.69 71.82ZM106.03 71.82Q106.57 71.43 107.97 71.37L109.08 71.33L109.08 72Q109.08 72.94 108.61 73.46Q108.53 73.54 108.44 73.62Q108.32 73.72 108.19 73.8Q107.64 74.14 106.87 74.14Q106.27 74.14 105.88 73.85Q105.88 73.85 105.87 73.85Q105.8 73.79 105.74 73.73Q105.49 73.44 105.49 72.92Q105.49 72.51 105.68 72.2Q105.81 71.98 106.03 71.82ZM122.02 71.82Q122.56 71.43 123.96 71.37L125.06 71.33L125.06 72Q125.06 72.94 124.6 73.46Q124.52 73.54 124.43 73.62Q124.31 73.72 124.18 73.8Q123.62 74.14 122.85 74.14Q122.26 74.14 121.87 73.85Q121.87 73.85 121.86 73.85Q121.79 73.79 121.73 73.73Q121.48 73.44 121.48 72.92Q121.48 72.51 121.66 72.2Q121.79 71.98 122.02 71.82ZM137.94 71.82Q138.48 71.43 139.88 71.37L140.98 71.33L140.98 72Q140.98 72.94 140.51 73.46Q140.44 73.54 140.35 73.62Q140.23 73.72 140.1 73.8Q139.54 74.14 138.77 74.14Q138.17 74.14 137.79 73.85Q137.78 73.85 137.78 73.85Q137.71 73.79 137.65 73.73Q137.4 73.44 137.4 72.92Q137.4 72.51 137.58 72.2Q137.71 71.98 137.94 71.82ZM252.36 71.82Q252.9 71.43 254.3 71.37L255.4 71.33L255.4 72Q255.4 72.94 254.94 73.46Q254.86 73.54 254.77 73.62Q254.65 73.72 254.52 73.8Q253.96 74.14 253.19 74.14Q252.6 74.14 252.21 73.85Q252.21 73.85 252.2 73.85Q252.13 73.79 252.07 73.73Q251.82 73.44 251.82 72.92Q251.82 72.51 252 72.2Q252.13 71.98 252.36 71.82ZM74.63 72.02Q74.87 72.28 74.87 72.77Q74.87 73.19 74.67 73.46Q74.55 73.62 74.36 73.72Q73.85 74 73.07 74L70.95 74L70.95 71.59L73.04 71.59Q73.91 71.59 74.39 71.84Q74.53 71.91 74.63 72.02ZM133.41 72.13Q133.6 72.39 133.6 72.8Q133.6 73.23 133.39 73.49Q133.28 73.63 133.11 73.73Q132.62 74 131.7 74L129.84 74L129.84 71.59L131.67 71.59Q132.62 71.59 133.11 71.87Q133.29 71.98 133.41 72.13ZM156.09 72.02Q156.34 72.28 156.34 72.77Q156.34 73.19 156.13 73.46Q156.02 73.62 155.83 73.72Q155.32 74 154.53 74L152.42 74L152.42 71.59L154.5 71.59Q155.37 71.59 155.86 71.84Q156 71.91 156.09 72.02ZM167.93 72.13Q168.13 72.39 168.13 72.8Q168.13 73.23 167.92 73.49Q167.81 73.63 167.64 73.73Q167.15 74 166.22 74L164.36 74L164.36 71.59L166.19 71.59Q167.15 71.59 167.64 71.87Q167.82 71.98 167.93 72.13Z" fill="#444B58" fill-opacity="1.000000" fill-rule="evenodd"/>
	<g filter="url(#filter_15_55_dd)">
		<ellipse id="Ellipse 11" cx="37.000000" cy="115.948242" rx="10.000000" ry="9.948276" fill="#FFFFFF" fill-opacity="1.000000"/>
	</g>
	<path id="?" d="M37.78 118.52L36.18 118.52C36.16 118.03 36.21 117.59 36.32 117.21C36.44 116.83 36.6 116.52 36.8 116.28C37 116.03 37.21 115.8 37.41 115.59C37.62 115.39 37.81 115.17 38 114.93C38.2 114.68 38.33 114.42 38.39 114.15C38.47 113.6 38.35 113.17 38.06 112.87C37.76 112.55 37.36 112.39 36.88 112.39C36.52 112.39 36.18 112.51 35.89 112.75C35.59 113 35.41 113.32 35.35 113.71L34 113.71C34.03 112.81 34.31 112.13 34.82 111.67C35.34 111.2 36.03 110.97 36.87 110.97C37.64 110.95 38.32 111.14 38.9 111.54C39.48 111.94 39.83 112.47 39.95 113.12C40 113.47 40.01 113.77 39.97 114.03C39.94 114.37 39.83 114.68 39.65 114.98C39.48 115.27 39.29 115.53 39.08 115.75C38.87 115.97 38.67 116.21 38.46 116.46C38.26 116.7 38.09 117 37.96 117.35C37.83 117.69 37.77 118.08 37.78 118.52ZM37.62 120.72C37.45 120.88 37.24 120.96 36.98 120.96C36.72 120.96 36.49 120.88 36.31 120.72C36.13 120.56 36.04 120.36 36.04 120.11C36.04 119.86 36.13 119.65 36.31 119.49C36.49 119.34 36.72 119.26 36.98 119.26C37.24 119.26 37.45 119.34 37.62 119.49C37.8 119.65 37.89 119.86 37.89 120.11C37.89 120.36 37.8 120.56 37.62 120.72Z" fill="#444B58" fill-opacity="1.000000" fill-rule="nonzero"/>
</svg>
