<svg width="44.000000" height="43.772461" viewBox="0 0 44 43.7725" fill="none" xmlns="http://www.w3.org/2000/svg" xmlns:xlink="http://www.w3.org/1999/xlink">
	<desc>
			Created with Pixso.
	</desc>
	<defs/>
	<path d="M0 21.88C0 9.79 9.84 0 22 0C34.15 0 44 9.79 44 21.88C44 33.97 34.15 43.77 22 43.77C9.84 43.77 0 33.97 0 21.88Z" fill="#0E5A4C" fill-opacity="1.000000" fill-rule="evenodd"/>
	<path d="M23.15 29.06C23.15 29.06 23.57 29.02 23.79 28.79C23.98 28.58 23.98 28.19 23.98 28.19C23.98 28.19 23.95 26.35 24.83 26.08C25.69 25.81 26.79 27.86 27.96 28.64C28.85 29.24 29.52 29.11 29.52 29.11L32.66 29.06C32.66 29.06 34.3 28.97 33.52 27.71C33.46 27.6 33.07 26.78 31.19 25.07C29.22 23.29 29.49 23.58 31.85 20.5C33.3 18.62 33.87 17.48 33.69 16.99C33.52 16.52 32.46 16.64 32.46 16.64L28.93 16.67C28.93 16.67 28.67 16.63 28.48 16.74C28.29 16.86 28.16 17.11 28.16 17.11C28.16 17.11 27.61 18.57 26.86 19.8C25.29 22.41 24.66 22.54 24.4 22.38C23.81 22 23.96 20.87 23.96 20.06C23.96 17.53 24.35 16.48 23.19 16.21C22.81 16.12 22.53 16.06 21.55 16.05C20.29 16.04 19.22 16.05 18.62 16.34C18.22 16.53 17.91 16.96 18.1 16.99C18.33 17.02 18.86 17.12 19.14 17.5C19.5 17.98 19.49 19.06 19.49 19.06C19.49 19.06 19.69 22.03 19 22.4C18.52 22.65 17.87 22.13 16.47 19.77C15.75 18.56 15.21 17.22 15.21 17.22C15.21 17.22 15.11 16.97 14.92 16.84C14.69 16.67 14.38 16.62 14.38 16.62L11.03 16.64C11.03 16.64 10.52 16.66 10.34 16.87C10.17 17.06 10.33 17.45 10.33 17.45C10.33 17.45 12.95 23.45 15.92 26.48C18.65 29.25 21.74 29.06 21.74 29.06L23.15 29.06Z" fill="#FFFFFF" fill-opacity="1.000000" fill-rule="evenodd"/>
</svg>
