<svg width="241.510742" height="521.459229" viewBox="0 0 241.511 521.459" fill="none" xmlns="http://www.w3.org/2000/svg" xmlns:xlink="http://www.w3.org/1999/xlink">
	<desc>
			Created with Pixso.
	</desc>
	<defs/>
	<mask id="mask73_553" mask-type="alpha" maskUnits="userSpaceOnUse" x="0.000000" y="0.000000" width="241.510742" height="521.459229">
		<path id="Screen Shape" d="M68.26 19.26L173.24 19.26C181.78 19.26 188.7 12.36 188.7 3.05C188.78 1.4 190.1 0.08 191.75 0L217.03 0C230.55 0 241.51 10.92 241.51 24.4L241.51 497.05C241.51 510.53 230.55 521.45 217.03 521.45L24.47 521.45C10.95 521.45 0 510.53 0 497.05L0 24.4C0 10.92 10.95 0 24.47 0L49.75 0C51.4 0.08 52.72 1.4 52.8 3.04C52.81 12.36 59.73 19.26 68.26 19.26Z" fill="#FFFFFF" fill-opacity="1.000000" fill-rule="evenodd"/>
	</mask>
	<g mask="url(#mask73_553)">
		<path id="Screen [CHANGE ME]" d="M0 0L241.51 0L241.51 521.45L0 521.45L0 0Z" fill="#FFDCB3" fill-opacity="1.000000" fill-rule="evenodd"/>
	</g>
	<path id="Vector" d="M117.01 221.51C116.71 221.82 116.31 222 115.88 222C115.46 222 115.05 221.82 114.75 221.51L105.7 212.23C104.76 211.27 104.76 209.71 105.7 208.74L106.83 207.58C107.77 206.62 109.29 206.62 110.23 207.58L115.88 213.38L131.14 197.72C132.08 196.75 133.61 196.75 134.54 197.72L135.68 198.88C136.62 199.84 136.62 201.41 135.68 202.37L117.01 221.51Z" fill="#0E5A4C" fill-opacity="1.000000" fill-rule="nonzero"/>
	<path id="Заголовок" d="M67.03 259.28Q68.21 257.29 68.21 254.59Q68.21 251.73 66.91 249.7Q66.41 248.93 65.73 248.28Q64.68 247.27 63.43 246.7Q61.73 245.91 59.66 245.91Q57.63 245.91 55.94 246.68Q54.67 247.26 53.59 248.28Q52.9 248.94 52.39 249.72Q51.1 251.74 51.1 254.6Q51.1 257.49 52.42 259.54Q52.9 260.29 53.56 260.92Q54.55 261.88 55.73 262.45Q57.47 263.28 59.62 263.28Q62.2 263.28 64.13 262.16Q65.04 261.64 65.81 260.86Q66.53 260.14 67.03 259.28ZM55.06 250.74Q55.29 250.42 55.57 250.15Q56.21 249.52 56.96 249.14Q58.17 248.52 59.69 248.52Q61.13 248.52 62.3 249.09Q63.11 249.49 63.78 250.17Q64.12 250.51 64.4 250.9Q65.43 252.39 65.43 254.59Q65.43 256.93 64.31 258.44Q64.07 258.76 63.78 259.04Q63.17 259.64 62.45 260.01Q61.22 260.65 59.67 260.65Q58.11 260.65 56.88 260.01Q56.16 259.63 55.56 259.04Q55.29 258.77 55.06 258.47Q53.93 256.96 53.93 254.6Q53.93 252.25 55.06 250.74ZM99.51 252.17Q99.04 252.64 98.76 253.3Q98.76 252.27 98.25 251.74Q97.44 250.92 95.38 251.33L95.4 253.13Q96.2 253.13 96.45 253.5Q96.47 253.53 96.48 253.56Q96.63 253.83 96.63 255.13L96.63 268.95L99.24 268.95L99.24 262.2Q100.27 262.82 101.37 263.02Q101.76 263.09 102.17 263.11Q103.34 263.17 104.34 262.8Q105.38 262.41 106.25 261.56Q106.73 261.09 107.08 260.53Q107.96 259.11 107.96 257.14Q107.96 255.2 107.13 253.72Q106.88 253.27 106.56 252.86Q106.03 252.2 105.35 251.78Q104.24 251.11 102.72 251.11Q100.6 251.11 99.51 252.17ZM188.59 260.66Q189.56 259.24 189.56 257.17Q189.56 255.4 188.79 254.07Q188.72 253.94 188.63 253.81Q187.86 252.62 186.76 251.98Q186.55 251.86 186.32 251.75Q186.01 251.61 185.69 251.5Q184.58 251.12 183.34 251.14Q181.95 251.17 180.77 251.69Q179.88 252.08 179.12 252.76Q178.68 253.14 178.35 253.6Q177.34 255.02 177.34 257.17Q177.34 259.27 178.33 260.69Q178.68 261.2 179.15 261.62Q179.97 262.34 180.92 262.73Q182.07 263.21 183.43 263.21Q184.78 263.21 185.93 262.74Q186.9 262.35 187.73 261.62Q188.23 261.18 188.59 260.66ZM117.69 261.75Q117.96 261.44 118.16 261.05Q118.18 262.13 118.64 262.65Q118.84 262.88 119.1 263.01Q119.41 263.17 119.81 263.17Q120.53 263.17 121.47 263.02L121.42 261.53Q120.96 261.58 120.71 261.51Q120.64 261.49 120.59 261.45Q120.43 261.36 120.35 261.14Q120.24 260.83 120.23 260.63Q120.22 260.43 120.22 259.88L120.22 255.31Q120.22 253.65 119.39 252.68Q119.12 252.36 118.74 252.11Q117.27 251.14 114.92 251.14Q112.42 251.14 110.64 252.05L111.03 253.93Q111.63 253.61 112.68 253.4Q113.74 253.18 114.88 253.16Q115.94 253.14 116.72 253.59Q116.78 253.62 116.84 253.66Q117.2 253.89 117.4 254.21Q117.68 254.64 117.68 255.24L117.68 256.4Q117.34 256.21 116.98 256.06Q115.72 255.53 114.24 255.53Q112.39 255.53 111.18 256.41Q111.07 256.49 110.97 256.57Q110.65 256.84 110.42 257.16Q109.72 258.12 109.75 259.61Q109.75 260.5 110.12 261.2Q110.43 261.78 110.99 262.23Q111.43 262.58 111.93 262.81Q112.83 263.21 113.91 263.21Q114.84 263.21 115.69 262.95Q116.07 262.84 116.43 262.67Q117.19 262.32 117.69 261.75ZM159.89 252.41Q158.55 251.17 156.05 251.17Q154.41 251.17 153.1 251.83Q152.42 252.17 151.83 252.69Q151.42 253.05 151.11 253.47Q150.09 254.86 150.05 256.97Q149.99 258.95 150.84 260.38Q151.22 261.04 151.8 261.58Q152.28 262.03 152.83 262.35Q154.4 263.29 156.56 263.26Q158.72 263.26 160.92 262.27L160.59 260.33Q160.5 260.37 160.42 260.4Q158.59 261.17 156.39 261.05Q155.08 261.05 154.14 260.47Q153.9 260.32 153.68 260.14Q153.28 259.8 153.04 259.37Q152.62 258.65 152.62 257.69L161.16 257.69Q161.67 255.09 160.67 253.38Q160.55 253.17 160.39 252.96Q160.17 252.66 159.89 252.41ZM132.81 256.01Q133.28 255.41 133.28 254.45Q133.28 253.61 132.94 253.02Q132.6 252.44 132.15 252.13Q131.69 251.81 130.93 251.65Q130.18 251.48 129.62 251.44Q129.05 251.41 128.26 251.41L123.82 251.41L123.82 263.02L128.91 263.02Q129.7 263.02 130.31 262.97Q130.92 262.93 131.63 262.72Q132.34 262.51 132.81 262.17Q133.28 261.82 133.59 261.2Q133.9 260.57 133.9 259.71Q133.9 258.97 133.62 258.37Q133.5 258.1 133.32 257.86Q133.18 257.66 133 257.49Q132.48 256.99 131.69 256.78Q132.42 256.53 132.81 256.01ZM73.59 262.97L76.13 262.97L76.13 253.71L79.87 253.71L79.87 251.43L69.87 251.43L69.87 253.71L73.59 253.71L73.59 262.97ZM92.74 251.43L82.13 251.43L82.13 263L84.77 263L84.77 253.73L90.15 253.73L90.15 263L92.74 263L92.74 251.43ZM140.81 253.73L144.79 253.73L144.79 263L147.36 263L147.36 251.43L138.55 251.43L137.69 258.79Q137.52 260.26 137.1 260.76Q136.69 261.27 135.29 261.07L135.24 263Q137.98 263.38 138.99 262.52Q140 261.65 140.26 258.89L140.81 253.73ZM174.65 251.43L172.11 251.43L172.11 255.86L166.52 255.86L166.52 251.43L164 251.43L164 263L166.52 263L166.52 258.15L172.11 258.15L172.11 263L174.65 263L174.65 251.43ZM153.69 253.92Q154.54 253.18 156.03 253.18Q157.13 253.18 157.92 253.68Q158.08 253.77 158.22 253.89Q158.55 254.15 158.75 254.49Q159.08 255.06 159.05 255.84L152.67 255.84Q152.92 254.58 153.69 253.92ZM128.4 256.08L126.36 256.08L126.36 253.32L128.4 253.32Q130.09 253.32 130.54 254.07Q130.71 254.34 130.71 254.72Q130.71 255.07 130.55 255.33Q130.11 256.08 128.4 256.08ZM180.61 259.52Q179.93 258.59 179.93 257.17Q179.93 255.72 180.63 254.8Q180.76 254.62 180.93 254.46Q181.39 254.01 181.94 253.76Q182.58 253.47 183.34 253.44Q184.02 253.42 184.61 253.63Q185.29 253.87 185.86 254.39Q186.09 254.61 186.28 254.87Q186.94 255.78 186.94 257.17Q186.94 258.61 186.24 259.54Q186.1 259.73 185.92 259.9Q185.4 260.4 184.78 260.65Q184.18 260.9 183.49 260.91Q182.79 260.92 182.18 260.69Q181.53 260.45 180.98 259.94Q180.78 259.74 180.61 259.52ZM99.2 259.9L99.2 256.66Q99.2 255.8 99.54 255.11Q99.73 254.72 100.03 254.38Q100.4 253.98 100.85 253.75Q101.45 253.44 102.2 253.44Q103.12 253.44 103.78 253.86Q104.19 254.11 104.5 254.52Q104.65 254.72 104.77 254.94Q105.31 255.89 105.31 257.14Q105.31 258.71 104.55 259.65Q104.48 259.74 104.41 259.81Q104.01 260.25 103.52 260.5Q102.9 260.81 102.15 260.83Q101.91 260.85 101.67 260.83Q100.41 260.75 99.2 259.9ZM117.68 258.07L117.68 259.03Q117.59 259.49 117.36 259.85Q117.06 260.31 116.53 260.61Q116.28 260.76 116 260.87Q115.27 261.15 114.44 261.15Q113.72 261.15 113.17 260.85Q113.05 260.79 112.95 260.72Q112.69 260.54 112.54 260.29Q112.33 259.94 112.33 259.47Q112.33 258.77 112.64 258.29Q112.79 258.06 112.99 257.89Q113.15 257.75 113.33 257.65Q113.9 257.3 114.68 257.28Q115.26 257.26 115.83 257.37Q116.79 257.55 117.68 258.07ZM128.64 261L126.36 261L126.36 257.86L128.53 257.86Q129.1 257.86 129.49 257.91Q129.89 257.96 130.37 258.09Q130.75 258.19 130.99 258.44Q131.05 258.5 131.1 258.57L131.11 258.58Q131.36 258.92 131.36 259.44Q131.36 260 131.12 260.35Q131.08 260.4 131.04 260.45Q130.8 260.71 130.39 260.83Q129.91 260.96 129.58 260.98Q129.25 261 128.64 261Z" fill="#0E5A4C" fill-opacity="1.000000" fill-rule="evenodd"/>
</svg>
